<svg width="2000" height="1160" viewBox="0 0 2000 1160" fill="none" xmlns="http://www.w3.org/2000/svg">
<mask id="mask0_4868_2534" style="mask-type:luminance" maskUnits="userSpaceOnUse" x="47" y="0" width="1921" height="1080">
<path d="M47.5778 1079.88L1967.37 1079.88L1967.37 0L47.5778 0L47.5778 1079.88Z" fill="white"/>
</mask>
<g mask="url(#mask0_4868_2534)">
<path d="M1650.84 1092.42C1748.94 1070.6 1812 1019.14 1847.64 979.804C1886.26 937.171 1901.89 899.165 1902.04 898.786L1900.14 898.017C1899.99 898.393 1884.46 936.124 1846.06 978.494C1810.63 1017.58 1747.93 1068.73 1650.4 1090.42L1650.84 1092.42Z" fill="#C3C8AB"/>
<path d="M1869.63 951.82C1869.63 951.82 1933.74 894.907 1909.99 877.273C1886.24 859.639 1869.63 951.82 1869.63 951.82Z" fill="#C3C8AB"/>
<path d="M1850.54 974.296C1850.54 974.296 1873.33 908.455 1851.65 907.097C1824.83 905.417 1850.54 974.296 1850.54 974.296Z" fill="#C3C8AB"/>
<path d="M1851.82 974.261C1851.82 974.261 1913 931.147 1918.96 952.036C1926.06 976.918 1851.82 974.261 1851.82 974.261Z" fill="#C3C8AB"/>
<path d="M1812.73 1010.32C1812.73 1010.32 1845.06 955.415 1823.71 951.382C1797.3 946.393 1812.73 1010.32 1812.73 1010.32Z" fill="#C3C8AB"/>
<path d="M1814 1010.45C1814 1010.45 1861.18 977.95 1864.51 999.416C1868.47 1024.99 1814 1010.45 1814 1010.45Z" fill="#C3C8AB"/>
<path d="M1771.72 1041.98C1771.72 1041.98 1807.09 997.852 1786.54 990.789C1761.13 982.049 1771.72 1041.98 1771.72 1041.98Z" fill="#C3C8AB"/>
<path d="M1772.96 1042.29C1772.96 1042.29 1843.39 1016.96 1843.59 1038.68C1843.83 1064.55 1772.96 1042.29 1772.96 1042.29Z" fill="#C3C8AB"/>
<path d="M1727.33 1066.04C1727.33 1066.04 1770.02 1010.97 1749.92 1002.74C1725.05 992.553 1727.33 1066.04 1727.33 1066.04Z" fill="#C3C8AB"/>
<path d="M1728.55 1066.42C1728.55 1066.42 1785.11 1046.65 1784.06 1068.35C1782.81 1094.2 1728.55 1066.42 1728.55 1066.42Z" fill="#C3C8AB"/>
<path d="M1672.6 1085.4C1672.6 1085.4 1720.69 1049.35 1702.58 1037.35C1680.19 1022.49 1672.6 1085.4 1672.6 1085.4Z" fill="#C3C8AB"/>
<path d="M1673.73 1086.01C1673.73 1086.01 1748.26 1079.22 1742.99 1100.29C1736.71 1125.39 1673.73 1086.01 1673.73 1086.01Z" fill="#C3C8AB"/>
</g>
<mask id="mask1_4868_2534" style="mask-type:luminance" maskUnits="userSpaceOnUse" x="47" y="0" width="1921" height="1080">
<path d="M47.5778 1079.88L1967.37 1079.88L1967.37 0L47.5778 0L47.5778 1079.88Z" fill="white"/>
</mask>
<g mask="url(#mask1_4868_2534)">
<path d="M1060.01 1102.18C977.956 1075.28 928.352 1025.97 901.189 989.337C871.747 949.635 861.573 915.82 861.475 915.484L863.164 914.986C863.262 915.321 873.371 948.89 902.649 988.35C929.658 1024.75 978.98 1073.76 1060.56 1100.5L1060.01 1102.18Z" fill="#C3C8AB"/>
<path d="M884.732 963.559C884.732 963.559 834.693 909.503 856.485 896.42C878.278 883.336 884.732 963.559 884.732 963.559Z" fill="#C3C8AB"/>
<path d="M899.164 984.382C899.164 984.382 885.211 926.164 903.864 926.825C926.943 927.643 899.164 984.382 899.164 984.382Z" fill="#C3C8AB"/>
<path d="M898.076 984.245C898.076 984.245 849.38 942.235 842.529 959.597C834.367 980.278 898.076 984.245 898.076 984.245Z" fill="#C3C8AB"/>
<path d="M928.476 1018.37C928.476 1018.37 905.445 968.699 924.037 967.044C947.039 964.996 928.476 1018.37 928.476 1018.37Z" fill="#C3C8AB"/>
<path d="M927.379 1018.37C927.379 1018.37 889.761 986.613 885.113 1004.69C879.576 1026.22 927.379 1018.37 927.379 1018.37Z" fill="#C3C8AB"/>
<path d="M960.884 1048.89C960.884 1048.89 934.346 1008.18 952.506 1003.86C974.973 998.528 960.884 1048.89 960.884 1048.89Z" fill="#C3C8AB"/>
<path d="M959.798 1049.04C959.798 1049.04 901.699 1021.47 899.701 1040.02C897.321 1062.13 959.798 1049.04 959.798 1049.04Z" fill="#C3C8AB"/>
<path d="M996.816 1073.19C996.816 1073.19 964.942 1022.51 982.824 1017.16C1004.95 1010.54 996.816 1073.19 996.816 1073.19Z" fill="#C3C8AB"/>
<path d="M995.741 1073.41C995.741 1073.41 949.042 1051.76 948.116 1070.4C947.012 1092.61 995.741 1073.41 995.741 1073.41Z" fill="#C3C8AB"/>
<path d="M1041.99 1094.34C1041.99 1094.34 1003.9 1059.48 1020.39 1050.74C1040.79 1039.92 1041.99 1094.34 1041.99 1094.34Z" fill="#C3C8AB"/>
</g>
<mask id="mask2_4868_2534" style="mask-type:luminance" maskUnits="userSpaceOnUse" x="47" y="0" width="1921" height="1080">
<path d="M47.5778 1079.88L1967.37 1079.88L1967.37 0L47.5778 0L47.5778 1079.88Z" fill="white"/>
</mask>
<g mask="url(#mask2_4868_2534)">
<path d="M1350.99 886.028C1288.79 849.644 1257 800.69 1241.29 766.029C1224.26 728.461 1221.91 699.085 1221.89 698.794L1223.36 698.685C1223.38 698.975 1225.71 728.139 1242.65 765.481C1258.28 799.929 1289.89 848.586 1351.74 884.758L1350.99 886.028Z" fill="#C3C8AB"/>
<path d="M1232.4 742.104C1232.4 742.104 1201.09 689.202 1221.17 682.364C1241.25 675.525 1232.4 742.104 1232.4 742.104Z" fill="#C3C8AB"/>
<path d="M1240.51 761.631C1240.51 761.631 1239.37 711.684 1254.47 715.505C1273.15 720.233 1240.51 761.631 1240.51 761.631Z" fill="#C3C8AB"/>
<path d="M1239.65 761.327C1239.65 761.327 1207.31 718.487 1198.67 731.445C1188.37 746.88 1239.65 761.327 1239.65 761.327Z" fill="#C3C8AB"/>
<path d="M1258.44 794.515C1258.44 794.515 1248.39 749.942 1263.85 751.864C1282.98 754.241 1258.44 794.515 1258.44 794.515Z" fill="#C3C8AB"/>
<path d="M1257.54 794.321C1257.54 794.321 1232.45 761.796 1225.47 775.725C1217.17 792.315 1257.54 794.321 1257.54 794.321Z" fill="#C3C8AB"/>
<path d="M1279.51 825.112C1279.51 825.112 1265.02 787.233 1280.6 786.91C1299.86 786.51 1279.51 825.112 1279.51 825.112Z" fill="#C3C8AB"/>
<path d="M1278.59 825.049C1278.59 825.049 1236.05 792.327 1231.16 807.114C1225.33 824.728 1278.59 825.049 1278.59 825.049Z" fill="#C3C8AB"/>
<path d="M1304.54 851.262C1304.54 851.262 1287.46 804.313 1302.99 803.094C1322.2 801.587 1304.54 851.262 1304.54 851.262Z" fill="#C3C8AB"/>
<path d="M1303.63 851.251C1303.63 851.251 1269.34 825.37 1265.31 840.415C1260.5 858.335 1303.63 851.251 1303.63 851.251Z" fill="#C3C8AB"/>
<path d="M1337.67 876.468C1337.67 876.468 1312.74 841.325 1327.73 837.093C1346.27 831.856 1337.67 876.468 1337.67 876.468Z" fill="#C3C8AB"/>
<path d="M1336.77 876.636C1336.77 876.636 1287.36 855.674 1286.35 871.217C1285.14 889.731 1336.77 876.636 1336.77 876.636Z" fill="#C3C8AB"/>
</g>
<mask id="mask3_4868_2534" style="mask-type:luminance" maskUnits="userSpaceOnUse" x="47" y="0" width="1921" height="1080">
<path d="M47.5778 1079.88L1967.37 1079.88L1967.37 0L47.5778 0L47.5778 1079.88Z" fill="white"/>
</mask>
<g mask="url(#mask3_4868_2534)">
<path d="M1740.89 903.902C1740.89 903.902 1794.78 857.808 1836.27 914.905C1836.27 914.905 1789.3 934.975 1740.89 903.902Z" fill="#566F94"/>
<path d="M1770.93 853.231C1770.93 853.231 1798.57 805.858 1844.55 840.858C1844.55 840.858 1815.1 866.627 1770.93 853.231Z" fill="#566F94"/>
<path d="M1680.78 948.675C1680.78 948.675 1703.78 928.248 1738.06 950.467C1738.06 950.467 1717.6 967.278 1680.78 948.675Z" fill="#566F94"/>
<path d="M1745.6 838.302C1745.6 838.302 1764.49 792.939 1700.9 780.844C1700.9 780.844 1693.35 826.025 1745.6 838.302Z" fill="#566F94"/>
<path d="M1795.28 777.752C1795.28 777.752 1734.54 960.286 1582.11 984.534" stroke="#003A54" stroke-width="3.8693" stroke-miterlimit="10" stroke-linecap="round" stroke-linejoin="round"/>
<path d="M1712.19 791.143C1712.19 791.143 1764.14 827.275 1741.39 877.157" stroke="#003A54" stroke-width="1.9347" stroke-miterlimit="10" stroke-linecap="round" stroke-linejoin="round"/>
<path d="M1801.59 906.058C1801.59 906.058 1757.92 891.249 1705.65 918.005" stroke="#003A54" stroke-width="1.9347" stroke-miterlimit="10" stroke-linecap="round" stroke-linejoin="round"/>
<path d="M1805.15 841.174C1805.15 841.174 1773.98 843.766 1743.43 874.124" stroke="#003A54" stroke-width="1.9347" stroke-miterlimit="10" stroke-linecap="round" stroke-linejoin="round"/>
<path d="M1734.7 949.036C1734.7 949.036 1704.44 939.255 1661.64 954.067" stroke="#003A54" stroke-width="1.9347" stroke-miterlimit="10" stroke-linecap="round" stroke-linejoin="round"/>
<path d="M1799.6 791.791C1799.6 791.791 1865.88 807.732 1880.78 771.628C1895.69 735.524 1825.52 765.935 1816.28 778.06C1816.28 778.06 1870.44 739.21 1850.79 721.133C1831.14 703.057 1796.16 767.279 1796.16 767.279C1796.16 767.279 1826.09 707.083 1796.27 699.277C1766.45 691.471 1780.95 765.129 1780.95 765.129C1780.95 765.129 1778.66 711.152 1754.55 710.042C1730.44 708.933 1747.53 778.362 1799.6 791.791Z" fill="#FF4537"/>
<path d="M1797.48 791.159C1797.48 791.159 1838.97 801.137 1848.3 778.538C1857.63 755.939 1813.71 774.975 1807.92 782.564C1807.92 782.564 1841.82 758.246 1829.52 746.932C1817.22 735.618 1795.33 775.816 1795.33 775.816C1795.33 775.816 1814.06 738.138 1795.4 733.252C1776.73 728.366 1785.81 774.47 1785.81 774.47C1785.81 774.47 1784.38 740.685 1769.28 739.99C1754.19 739.297 1764.89 782.753 1797.48 791.159Z" fill="#FF8176"/>
<path d="M1759.28 788.894C1759.28 788.894 1776.3 772.301 1792.1 787.391C1792.1 787.391 1784.98 802.582 1759.28 788.894Z" fill="#566F94"/>
<path d="M1814.8 810.388C1814.8 810.388 1814.28 787.008 1792.09 787.391C1792.09 787.391 1786.44 803.147 1814.8 810.388Z" fill="#566F94"/>
</g>
<mask id="mask4_4868_2534" style="mask-type:luminance" maskUnits="userSpaceOnUse" x="47" y="0" width="1921" height="1080">
<path d="M47.5778 1079.88L1967.37 1079.88L1967.37 0L47.5778 0L47.5778 1079.88Z" fill="white"/>
</mask>
<g mask="url(#mask4_4868_2534)">
<path d="M1160.28 582.431C1082.87 793.344 1318.96 974.249 1318.96 974.249" stroke="#00537E" stroke-width="2.5308" stroke-miterlimit="10"/>
<path d="M1281.89 942.246C1281.89 942.246 1254.46 907.023 1211.21 923.032C1211.21 923.032 1237.6 956.683 1281.89 942.246Z" fill="#3B6393"/>
<path d="M1211.21 923.032C1211.21 923.032 1237.6 956.683 1281.89 942.246C1281.89 942.246 1240.4 921.324 1211.21 923.032Z" fill="#00537E"/>
<path d="M1230.77 886.293C1230.77 886.293 1196.01 858.277 1157.56 883.754C1157.56 883.754 1190.95 910.477 1230.77 886.293Z" fill="#3B6393"/>
<path d="M1157.56 883.754C1157.56 883.754 1190.95 910.478 1230.77 886.293C1230.77 886.293 1185.6 875.413 1157.56 883.754Z" fill="#00537E"/>
<path d="M1181.79 813.69C1181.79 813.69 1170.7 775.107 1129.25 773.966C1129.25 773.966 1139.99 810.888 1181.79 813.69Z" fill="#3B6393"/>
<path d="M1129.25 773.966C1129.25 773.966 1139.99 810.888 1181.78 813.69C1181.78 813.69 1154.18 782.327 1129.25 773.966Z" fill="#00537E"/>
<path d="M1145.59 695.483C1145.59 695.483 1144.74 663.008 1112.5 653.697C1112.5 653.697 1113.41 684.8 1145.59 695.483Z" fill="#3B6393"/>
<path d="M1112.5 653.696C1112.5 653.696 1113.41 684.8 1145.59 695.482C1145.59 695.482 1130.33 665.309 1112.5 653.696Z" fill="#00537E"/>
<path d="M1207.97 778.012C1207.97 778.012 1180.72 813.382 1207.04 851.257C1207.04 851.257 1233.02 817.289 1207.97 778.012Z" fill="#3B6393"/>
<path d="M1207.04 851.257C1207.04 851.257 1233.02 817.289 1207.97 778.012C1207.97 778.012 1198.09 823.415 1207.04 851.257Z" fill="#00537E"/>
<path d="M1175.72 688.118C1175.72 688.118 1142.13 717.531 1160.6 759.792C1160.6 759.792 1192.68 731.51 1175.72 688.118Z" fill="#3B6393"/>
<path d="M1160.6 759.791C1160.6 759.791 1192.68 731.509 1175.72 688.117C1175.72 688.117 1157.22 730.741 1160.6 759.791Z" fill="#00537E"/>
<path d="M1170.28 618.295C1170.28 618.295 1143.32 629.051 1145.49 658.961C1145.49 658.961 1171.28 648.572 1170.28 618.295Z" fill="#3B6393"/>
<path d="M1145.49 658.961C1145.49 658.961 1171.28 648.572 1170.28 618.295C1170.28 618.295 1149.71 640.418 1145.49 658.961Z" fill="#00537E"/>
<path d="M1167.42 560.463C1167.42 560.463 1199.78 557.235 1203.11 509.605L1191.82 510.154L1189.5 498.464C1189.5 498.464 1166.58 503.826 1158.91 554.197L1167.42 560.463Z" fill="white"/>
<path d="M1195.98 519.16C1195.44 521.237 1194.64 523.246 1193.73 525.201C1193.3 526.191 1192.78 527.137 1192.28 528.095C1191.8 529.061 1191.23 529.977 1190.7 530.92C1190.15 531.854 1189.54 532.742 1188.96 533.657C1188.39 534.579 1187.73 535.435 1187.12 536.329C1186.51 537.221 1185.84 538.069 1185.17 538.915C1184.49 539.756 1183.85 540.636 1183.13 541.443C1182.43 542.262 1181.73 543.092 1181.01 543.9C1180.29 544.709 1179.52 545.47 1178.78 546.258C1178.03 547.035 1177.3 547.838 1176.51 548.572L1174.16 550.813C1173.39 551.567 1172.55 552.251 1171.73 552.959L1169.27 555.071C1168.44 555.761 1167.58 556.414 1166.74 557.088C1165.89 557.762 1165.03 558.409 1164.17 559.068L1160.16 562.158L1161.34 557.228C1161.58 556.23 1161.86 555.302 1162.12 554.35C1162.37 553.396 1162.69 552.474 1162.97 551.537C1163.27 550.607 1163.53 549.66 1163.87 548.744L1164.87 545.993C1165.22 545.08 1165.52 544.152 1165.91 543.257L1167.02 540.552C1167.39 539.649 1167.77 538.753 1168.16 537.858C1168.56 536.971 1169 536.099 1169.42 535.22L1170.69 532.59C1171.12 531.717 1171.53 530.832 1172.02 529.988C1172.98 528.294 1173.92 526.594 1174.9 524.915C1175.41 524.084 1175.85 523.22 1176.4 522.419L1178.04 520.001C1179.13 518.393 1180.24 516.807 1181.37 515.233C1180.55 516.997 1179.72 518.749 1178.87 520.478L1177.59 523.066C1177.14 523.916 1176.81 524.828 1176.42 525.704C1175.66 527.472 1174.86 529.218 1174.08 530.971C1173.68 531.84 1173.39 532.759 1173.01 533.641L1171.94 536.309C1171.59 537.2 1171.22 538.082 1170.89 538.978C1170.57 539.883 1170.26 540.786 1169.93 541.683L1168.95 544.377C1168.6 545.269 1168.34 546.19 1168.04 547.096L1167.17 549.823C1166.85 550.724 1166.62 551.646 1166.34 552.556C1166.07 553.47 1165.77 554.379 1165.55 555.296C1165.31 556.209 1165.05 557.137 1164.85 558.02L1162.02 556.18C1162.85 555.53 1163.67 554.868 1164.51 554.233C1165.34 553.588 1166.19 552.963 1167.01 552.301L1169.44 550.277C1170.24 549.598 1171.07 548.943 1171.83 548.22L1174.19 546.122C1175 545.439 1175.73 544.69 1176.5 543.966C1177.25 543.231 1178.03 542.521 1178.76 541.764C1179.48 541 1180.23 540.258 1180.96 539.504C1181.72 538.767 1182.39 537.959 1183.11 537.187C1183.82 536.412 1184.52 535.624 1185.19 534.81C1185.86 534.002 1186.59 533.227 1187.23 532.388C1187.87 531.555 1188.55 530.745 1189.17 529.889C1189.78 529.034 1190.46 528.21 1191.04 527.331C1191.65 526.464 1192.24 525.588 1192.81 524.694C1193.41 523.812 1193.94 522.898 1194.48 521.98C1195.01 521.063 1195.54 520.135 1195.98 519.16Z" fill="#FFCEC6"/>
<path d="M1158.54 557.627C1158.54 557.627 1172.81 528.402 1134.05 500.525L1128.58 510.416L1117.42 506.241C1117.42 506.241 1109.92 528.557 1148.73 561.569L1158.54 557.627Z" fill="white"/>
<path d="M1138.43 511.608C1139.91 513.161 1141.2 514.905 1142.38 516.702C1143 517.591 1143.53 518.527 1144.08 519.455C1144.65 520.378 1145.13 521.342 1145.65 522.291C1146.16 523.246 1146.59 524.234 1147.07 525.207C1147.55 526.176 1147.93 527.185 1148.37 528.175C1148.81 529.167 1149.18 530.183 1149.54 531.2C1149.9 532.219 1150.32 533.224 1150.63 534.26C1150.95 535.291 1151.29 536.319 1151.6 537.356C1151.91 538.393 1152.15 539.446 1152.43 540.491C1152.7 541.539 1153 542.582 1153.21 543.642L1153.88 546.816C1154.11 547.874 1154.25 548.945 1154.43 550.012L1154.93 553.215C1155.08 554.285 1155.18 555.36 1155.31 556.432C1155.44 557.504 1155.54 558.58 1155.65 559.654L1156.17 564.69L1152.59 561.093C1151.87 560.365 1151.23 559.644 1150.55 558.921C1149.87 558.206 1149.26 557.452 1148.61 556.717C1147.98 555.971 1147.31 555.254 1146.71 554.485L1144.9 552.183C1144.3 551.41 1143.67 550.662 1143.11 549.861L1141.4 547.49C1140.82 546.703 1140.26 545.906 1139.71 545.107C1139.16 544.297 1138.65 543.465 1138.13 542.646L1136.56 540.182C1136.04 539.357 1135.5 538.549 1135.04 537.689C1134.11 535.978 1133.16 534.28 1132.24 532.565C1131.8 531.699 1131.3 530.869 1130.91 529.975L1129.71 527.316C1128.92 525.544 1128.16 523.76 1127.41 521.977C1128.48 523.6 1129.53 525.223 1130.56 526.857L1132.09 529.307C1132.57 530.134 1133.17 530.896 1133.71 531.693C1134.81 533.271 1135.88 534.865 1136.97 536.446C1137.49 537.246 1138.12 537.981 1138.67 538.763L1140.38 541.074C1140.95 541.841 1141.51 542.62 1142.1 543.376C1142.7 544.118 1143.3 544.862 1143.89 545.616L1145.67 547.867C1146.24 548.629 1146.89 549.333 1147.51 550.065L1149.36 552.242C1149.96 552.986 1150.62 553.672 1151.25 554.39C1151.89 555.094 1152.5 555.827 1153.16 556.502C1153.82 557.184 1154.47 557.892 1155.12 558.525L1152.06 559.963C1151.95 558.916 1151.81 557.871 1151.72 556.822C1151.6 555.775 1151.52 554.723 1151.39 553.679L1150.94 550.553C1150.79 549.512 1150.66 548.464 1150.45 547.434L1149.91 544.324C1149.75 543.282 1149.5 542.26 1149.29 541.23C1149.06 540.204 1148.86 539.167 1148.6 538.148C1148.33 537.132 1148.09 536.107 1147.84 535.084C1147.61 534.054 1147.28 533.057 1147 532.041C1146.71 531.026 1146.41 530.016 1146.07 529.02C1145.74 528.022 1145.46 526.998 1145.08 526.016C1144.71 525.03 1144.38 524.023 1143.98 523.048C1143.57 522.075 1143.23 521.069 1142.79 520.109C1142.37 519.138 1141.94 518.17 1141.48 517.216C1141.04 516.248 1140.54 515.31 1140.04 514.371C1139.54 513.435 1139.03 512.497 1138.43 511.608Z" fill="#FFCEC6"/>
<path d="M1150.3 560.771C1150.3 560.771 1131.41 534.297 1088.43 555.098L1094.52 564.619L1085.53 572.444C1085.53 572.444 1101.58 589.665 1149.1 571.267L1150.3 560.771Z" fill="white"/>
<path d="M1100.26 556.526C1102.33 555.963 1104.48 555.664 1106.62 555.478C1107.7 555.361 1108.78 555.338 1109.86 555.294C1110.94 555.237 1112.01 555.273 1113.1 555.267C1114.18 555.276 1115.25 555.366 1116.33 555.411C1117.42 555.446 1118.49 555.591 1119.56 555.676C1120.64 555.766 1121.71 555.925 1122.78 556.088C1123.85 556.258 1124.93 556.374 1125.99 556.596C1127.05 556.801 1128.11 556.991 1129.17 557.214C1130.23 557.435 1131.28 557.723 1132.33 557.974C1133.38 558.241 1134.43 558.474 1135.47 558.797L1138.58 559.718C1139.62 560.018 1140.63 560.403 1141.65 560.759L1144.7 561.843C1145.72 562.221 1146.71 562.642 1147.71 563.04C1148.72 563.437 1149.71 563.866 1150.71 564.28L1155.38 566.222L1150.52 567.649C1149.53 567.938 1148.59 568.162 1147.64 568.408C1146.68 568.665 1145.73 568.848 1144.77 569.068C1143.81 569.269 1142.86 569.515 1141.9 569.678L1139.02 570.174C1138.05 570.329 1137.1 570.526 1136.13 570.634L1133.22 571.012C1132.26 571.143 1131.29 571.257 1130.32 571.366C1129.35 571.456 1128.38 571.509 1127.41 571.583L1124.49 571.788C1123.52 571.848 1122.55 571.94 1121.58 571.934C1119.63 571.939 1117.68 571.966 1115.74 571.952C1114.77 571.927 1113.8 571.974 1112.83 571.89L1109.92 571.677C1107.98 571.532 1106.05 571.352 1104.13 571.16C1106.06 570.992 1107.99 570.837 1109.92 570.716L1112.8 570.54C1113.76 570.505 1114.72 570.34 1115.67 570.246C1117.59 570.028 1119.5 569.849 1121.4 569.65C1122.36 569.568 1123.3 569.367 1124.25 569.253L1127.1 568.852C1128.04 568.714 1129 568.596 1129.94 568.441C1130.88 568.262 1131.82 568.087 1132.76 567.929L1135.59 567.44C1136.53 567.295 1137.46 567.062 1138.4 566.871L1141.2 566.273C1142.13 566.101 1143.05 565.848 1143.98 565.639C1144.91 565.413 1145.84 565.219 1146.75 564.96C1147.66 564.712 1148.6 564.475 1149.46 564.208L1149.27 567.577C1148.3 567.181 1147.31 566.799 1146.35 566.385C1145.37 565.984 1144.41 565.558 1143.42 565.176L1140.46 564.08C1139.48 563.719 1138.5 563.329 1137.49 563.025L1134.5 562.021C1133.5 561.663 1132.49 561.396 1131.48 561.094C1130.47 560.807 1129.46 560.483 1128.44 560.226C1127.42 559.98 1126.41 559.701 1125.39 559.437C1124.37 559.148 1123.34 558.966 1122.31 558.728C1121.28 558.494 1120.25 558.278 1119.21 558.104C1118.18 557.921 1117.14 557.678 1116.1 557.544C1115.06 557.399 1114.01 557.21 1112.97 557.1C1111.92 556.991 1110.87 556.816 1109.81 556.746C1108.76 556.652 1107.71 556.57 1106.65 556.521C1105.59 556.446 1104.53 556.434 1103.46 556.424C1102.4 556.423 1101.33 556.425 1100.26 556.526Z" fill="#FFCEC6"/>
<path d="M1152.26 569.885C1152.26 569.885 1119.8 572.033 1114.89 619.526L1126.19 619.353L1128.12 631.113C1128.12 631.113 1151.21 626.517 1160.55 576.43L1152.26 569.885Z" fill="white"/>
<path d="M1122.33 610.214C1122.94 608.156 1123.81 606.175 1124.78 604.252C1125.25 603.277 1125.8 602.348 1126.33 601.407C1126.85 600.458 1127.44 599.561 1128.01 598.637C1128.58 597.722 1129.23 596.855 1129.83 595.959C1130.43 595.056 1131.12 594.222 1131.76 593.349C1132.41 592.478 1133.1 591.652 1133.8 590.829C1134.51 590.011 1135.17 589.152 1135.92 588.37C1136.65 587.575 1137.37 586.768 1138.12 585.985C1138.87 585.2 1139.66 584.465 1140.43 583.703C1141.21 582.952 1141.96 582.173 1142.78 581.466L1145.2 579.305C1146 578.578 1146.86 577.921 1147.7 577.241L1150.23 575.212C1151.08 574.55 1151.96 573.926 1152.83 573.281C1153.69 572.635 1154.58 572.018 1155.46 571.387L1159.57 568.432L1158.22 573.32C1157.95 574.31 1157.64 575.228 1157.35 576.171C1157.07 577.116 1156.72 578.027 1156.41 578.955C1156.08 579.874 1155.79 580.812 1155.42 581.716L1154.32 584.432C1153.94 585.333 1153.61 586.25 1153.19 587.132L1151.99 589.798C1151.59 590.688 1151.18 591.571 1150.76 592.453C1150.33 593.326 1149.86 594.182 1149.41 595.047L1148.05 597.633C1147.59 598.491 1147.16 599.363 1146.65 600.189C1145.62 601.85 1144.62 603.518 1143.59 605.163C1143.06 605.977 1142.59 606.825 1142.01 607.607L1140.29 609.969C1139.15 611.54 1137.98 613.088 1136.81 614.623C1137.69 612.887 1138.57 611.164 1139.48 609.464L1140.84 606.92C1141.32 606.085 1141.68 605.185 1142.1 604.322C1142.92 602.581 1143.78 600.862 1144.61 599.135C1145.04 598.28 1145.37 597.371 1145.77 596.503L1146.93 593.872C1147.31 592.994 1147.71 592.124 1148.07 591.24C1148.41 590.346 1148.76 589.454 1149.12 588.568L1150.19 585.908C1150.57 585.028 1150.85 584.116 1151.18 583.22L1152.15 580.524C1152.5 579.634 1152.76 578.721 1153.08 577.82C1153.37 576.916 1153.7 576.016 1153.96 575.107C1154.22 574.203 1154.51 573.284 1154.74 572.408L1157.51 574.341C1156.66 574.963 1155.81 575.597 1154.95 576.204C1154.1 576.821 1153.23 577.418 1152.39 578.051L1149.9 579.993C1149.07 580.644 1148.23 581.272 1147.44 581.969L1145.01 583.987C1144.18 584.642 1143.42 585.367 1142.63 586.065C1141.86 586.775 1141.05 587.458 1140.3 588.19C1139.55 588.93 1138.78 589.647 1138.02 590.375C1137.24 591.086 1136.54 591.871 1135.8 592.62C1135.06 593.371 1134.33 594.135 1133.64 594.926C1132.94 595.711 1132.19 596.462 1131.52 597.279C1130.85 598.09 1130.14 598.877 1129.5 599.711C1128.85 600.546 1128.16 601.346 1127.54 602.205C1126.91 603.052 1126.28 603.907 1125.68 604.781C1125.06 605.643 1124.49 606.538 1123.93 607.438C1123.36 608.345 1122.81 609.254 1122.33 610.214Z" fill="#FFCEC6"/>
<path d="M1161.34 575.675C1161.34 575.675 1148.17 605.412 1187.94 631.824L1193.04 621.736L1204.35 625.491C1204.35 625.491 1211.01 602.911 1170.99 571.371L1161.34 575.675Z" fill="white"/>
<path d="M1183.15 620.911C1181.61 619.414 1180.27 617.72 1179.01 615.968C1178.37 615.102 1177.8 614.187 1177.21 613.28C1176.61 612.379 1176.1 611.434 1175.54 610.505C1175 609.569 1174.53 608.599 1174.02 607.644C1173.5 606.693 1173.08 605.699 1172.6 604.726C1172.13 603.75 1171.72 602.75 1171.32 601.747C1170.92 600.742 1170.47 599.753 1170.13 598.729C1169.76 597.711 1169.38 596.697 1169.04 595.671C1168.69 594.647 1168.4 593.603 1168.09 592.569C1167.78 591.531 1167.44 590.501 1167.2 589.448L1166.41 586.301C1166.14 585.253 1165.95 584.188 1165.74 583.128L1165.12 579.946C1164.93 578.883 1164.78 577.812 1164.62 576.745C1164.45 575.678 1164.31 574.606 1164.16 573.537L1163.45 568.524L1167.16 571.985C1167.91 572.686 1168.58 573.382 1169.28 574.08C1169.98 574.769 1170.63 575.5 1171.3 576.21C1171.96 576.931 1172.66 577.624 1173.29 578.369L1175.18 580.602C1175.81 581.353 1176.47 582.076 1177.05 582.856L1178.85 585.161C1179.46 585.926 1180.05 586.701 1180.64 587.479C1181.21 588.268 1181.75 589.08 1182.3 589.879L1183.96 592.283C1184.51 593.089 1185.08 593.875 1185.57 594.718C1186.57 596.393 1187.58 598.054 1188.56 599.734C1189.03 600.583 1189.56 601.394 1189.99 602.273L1191.28 604.886C1192.14 606.628 1192.97 608.381 1193.79 610.135C1192.66 608.553 1191.54 606.97 1190.46 605.376L1188.84 602.985C1188.32 602.176 1187.69 601.437 1187.12 600.661C1185.96 599.126 1184.84 597.572 1183.69 596.032C1183.14 595.252 1182.48 594.541 1181.9 593.781L1180.11 591.535C1179.51 590.79 1178.92 590.033 1178.31 589.298C1177.68 588.579 1177.05 587.858 1176.43 587.127L1174.57 584.944C1173.97 584.204 1173.29 583.525 1172.65 582.816L1170.72 580.709C1170.09 579.988 1169.4 579.327 1168.75 578.633C1168.09 577.953 1167.44 577.244 1166.76 576.594C1166.08 575.937 1165.4 575.254 1164.73 574.645L1167.73 573.094C1167.89 574.136 1168.06 575.176 1168.19 576.22C1168.34 577.262 1168.47 578.31 1168.64 579.349L1169.2 582.456C1169.39 583.491 1169.56 584.533 1169.81 585.554L1170.47 588.641C1170.66 589.677 1170.95 590.688 1171.2 591.709C1171.47 592.726 1171.7 593.755 1172 594.764C1172.31 595.769 1172.59 596.785 1172.88 597.797C1173.14 598.818 1173.51 599.802 1173.83 600.807C1174.15 601.811 1174.49 602.809 1174.87 603.791C1175.24 604.776 1175.56 605.789 1175.97 606.756C1176.38 607.728 1176.75 608.722 1177.19 609.68C1177.63 610.638 1178.01 611.63 1178.49 612.573C1178.94 613.528 1179.41 614.479 1179.9 615.415C1180.38 616.366 1180.91 617.284 1181.44 618.205C1181.98 619.127 1182.52 620.045 1183.15 620.911Z" fill="#FFCEC6"/>
<path d="M1168.2 569.353C1168.2 569.353 1186.56 596.198 1229.94 576.257L1224.04 566.616L1233.18 558.971C1233.18 558.971 1217.48 541.434 1169.61 558.881L1168.2 569.353Z" fill="white"/>
<path d="M1218.14 574.594C1216.06 575.116 1213.91 575.371 1211.76 575.515C1210.68 575.61 1209.6 575.612 1208.52 575.635C1207.44 575.67 1206.37 575.613 1205.28 575.598C1204.2 575.567 1203.13 575.457 1202.05 575.389C1200.97 575.332 1199.9 575.166 1198.82 575.059C1197.75 574.947 1196.68 574.767 1195.62 574.583C1194.55 574.392 1193.48 574.255 1192.42 574.011C1191.37 573.785 1190.3 573.574 1189.25 573.329C1188.19 573.087 1187.16 572.779 1186.11 572.506C1185.07 572.219 1184.01 571.965 1182.99 571.621L1179.9 570.638C1178.86 570.318 1177.86 569.913 1176.85 569.536L1173.81 568.391C1172.81 567.993 1171.82 567.552 1170.83 567.134C1169.83 566.717 1168.85 566.268 1167.86 565.834L1163.22 563.799L1168.12 562.469C1169.11 562.2 1170.05 561.995 1171.01 561.767C1171.97 561.529 1172.93 561.365 1173.89 561.164C1174.85 560.982 1175.81 560.755 1176.77 560.611L1179.67 560.173C1180.63 560.037 1181.59 559.859 1182.57 559.771L1185.47 559.451C1186.44 559.34 1187.41 559.245 1188.38 559.154C1189.35 559.083 1190.33 559.05 1191.3 558.996L1194.22 558.849C1195.19 558.808 1196.16 558.735 1197.14 558.761C1199.09 558.795 1201.03 558.807 1202.97 558.859C1203.94 558.903 1204.91 558.876 1205.88 558.979L1208.79 559.25C1210.72 559.434 1212.65 559.652 1214.57 559.882C1212.63 560.011 1210.69 560.128 1208.77 560.21L1205.88 560.329C1204.92 560.345 1203.96 560.491 1203.01 560.565C1201.09 560.745 1199.18 560.885 1197.27 561.047C1196.31 561.11 1195.36 561.292 1194.41 561.387L1191.56 561.731C1190.61 561.85 1189.65 561.95 1188.71 562.085C1187.76 562.245 1186.82 562.401 1185.87 562.541L1183.04 562.974C1182.09 563.1 1181.16 563.315 1180.22 563.487L1177.41 564.029C1176.46 564.182 1175.54 564.417 1174.61 564.607C1173.68 564.815 1172.74 564.989 1171.83 565.231C1170.91 565.46 1169.97 565.679 1169.1 565.929L1169.36 562.564C1170.33 562.98 1171.3 563.381 1172.26 563.814C1173.23 564.235 1174.19 564.68 1175.16 565.081L1178.1 566.236C1179.08 566.616 1180.05 567.026 1181.05 567.35L1184.02 568.413C1185.01 568.79 1186.02 569.078 1187.02 569.4C1188.03 569.707 1189.02 570.051 1190.04 570.328C1191.06 570.594 1192.07 570.893 1193.08 571.178C1194.09 571.487 1195.12 571.69 1196.14 571.948C1197.17 572.202 1198.19 572.439 1199.23 572.634C1200.26 572.838 1201.29 573.101 1202.33 573.256C1203.37 573.422 1204.41 573.632 1205.45 573.762C1206.5 573.891 1207.54 574.087 1208.6 574.178C1209.65 574.293 1210.7 574.395 1211.76 574.466C1212.82 574.562 1213.88 574.596 1214.94 574.626C1216.01 574.655 1217.07 574.674 1218.14 574.594Z" fill="#FFCEC6"/>
<path d="M1146.63 561.994C1148.32 558.079 1151.27 554.708 1155.49 551.886C1159.71 549.063 1163.57 548.409 1167.08 549.923C1170.58 551.435 1173.07 554.062 1174.56 557.797C1176.04 561.533 1176.04 565.791 1174.56 570.567C1173.01 574.155 1170.28 576.893 1166.37 578.784C1162.46 580.678 1158.75 580.864 1155.24 579.35C1151.73 577.835 1149 575.545 1147.04 572.47C1145.07 569.402 1144.94 565.908 1146.63 561.994Z" fill="#FF6033"/>
</g>
<mask id="mask5_4868_2534" style="mask-type:luminance" maskUnits="userSpaceOnUse" x="47" y="0" width="1921" height="1080">
<path d="M47.5778 1079.88L1967.37 1079.88L1967.37 0L47.5778 0L47.5778 1079.88Z" fill="white"/>
</mask>
<g mask="url(#mask5_4868_2534)">
<path d="M185.32 715.444C185.32 715.444 192.055 836.949 -7.62099 966.195" stroke="#35A58A" stroke-width="5.2222" stroke-miterlimit="10"/>
<path d="M108.622 867.649C108.622 867.649 60.421 831.677 93.216 784.226C93.216 784.226 130.802 820.692 108.622 867.649Z" fill="#35A58A"/>
<path d="M125.679 856.377C125.679 856.377 191.525 877.317 218.555 827.605C218.555 827.605 171.012 809.186 125.679 856.377Z" fill="#35A58A"/>
<path d="M66.369 913.188C66.369 913.188 101.03 948.375 145.386 910.232C145.386 910.232 104.699 883.934 66.369 913.188Z" fill="#35A58A"/>
<path d="M26.159 861.518C26.159 861.518 -11.477 893.502 23.307 940.539C23.307 940.539 52.52 901.892 26.159 861.518Z" fill="#35A58A"/>
<g opacity="0.5">
<path d="M108.622 867.649C108.622 867.649 60.421 831.677 93.216 784.226C93.216 784.226 100.793 827.108 108.622 867.649Z" fill="#70E0BE"/>
<path d="M125.679 856.377C125.679 856.377 181.934 848.057 218.555 827.605C218.555 827.605 171.012 809.186 125.679 856.377Z" fill="#70E0BE"/>
<path d="M66.369 913.188C66.369 913.188 106.745 923.897 145.386 910.232C145.386 910.232 104.699 883.934 66.369 913.188Z" fill="#70E0BE"/>
</g>
<path d="M189.564 724.461C189.564 724.461 166.57 769.941 183.836 790.775C201.101 811.609 232.459 796.229 237.204 781.874C241.949 767.518 217.419 741.762 195.064 725.085L189.564 724.461Z" fill="#FF8176"/>
<path d="M192.443 791.231C192.443 791.231 180.135 777.078 189.564 724.46L202.004 790.409" stroke="#FFCEC6" stroke-width="0.7969" stroke-miterlimit="10" stroke-linecap="round" stroke-linejoin="round"/>
<path d="M212.517 788.312L189.564 724.461C189.564 724.461 205.045 733.028 220.475 784.307" stroke="#FFCEC6" stroke-width="0.7969" stroke-miterlimit="10" stroke-linecap="round" stroke-linejoin="round"/>
<path d="M230.816 777.109C230.816 777.109 222.29 745.893 189.563 724.461" stroke="#FFCEC6" stroke-width="0.7969" stroke-miterlimit="10" stroke-linecap="round" stroke-linejoin="round"/>
<path d="M190.151 723.659C190.151 723.659 229.911 755.539 253.858 742.942C277.805 730.345 269.224 696.489 256.155 688.886C243.087 681.282 212.825 699.972 191.895 718.406L190.151 723.659Z" fill="#FF8176"/>
<path d="M256.08 734.613C256.08 734.613 239.693 743.737 190.151 723.659L257.248 725.089" stroke="#FFCEC6" stroke-width="0.7969" stroke-miterlimit="10" stroke-linecap="round" stroke-linejoin="round"/>
<path d="M257.363 714.369L190.151 723.659C190.151 723.659 201.727 710.278 255.086 705.756" stroke="#FFCEC6" stroke-width="0.7969" stroke-miterlimit="10" stroke-linecap="round" stroke-linejoin="round"/>
<path d="M250.176 694.152C250.176 694.152 217.873 696.057 190.151 723.659" stroke="#FFCEC6" stroke-width="0.7969" stroke-miterlimit="10" stroke-linecap="round" stroke-linejoin="round"/>
<path d="M187.951 722.096C187.951 722.096 182.331 671.445 156.483 663.443C130.635 655.442 112.791 685.466 116.669 700.08C120.547 714.694 155.169 722.844 183.005 724.582L187.951 722.096Z" fill="#FF8176"/>
<path d="M149.027 667.768C149.027 667.768 167.071 672.887 187.951 722.096L141.472 673.684" stroke="#FFCEC6" stroke-width="0.7969" stroke-miterlimit="10" stroke-linecap="round" stroke-linejoin="round"/>
<path d="M133.818 681.19L187.952 722.096C187.952 722.096 170.306 723.389 129.345 688.895" stroke="#FFCEC6" stroke-width="0.7969" stroke-miterlimit="10" stroke-linecap="round" stroke-linejoin="round"/>
<path d="M124.623 700.576C124.623 700.576 148.832 722.048 187.951 722.096" stroke="#FFCEC6" stroke-width="0.7969" stroke-miterlimit="10" stroke-linecap="round" stroke-linejoin="round"/>
<path d="M190.332 721.304C190.332 721.304 234.549 695.967 231.589 669.071C228.628 642.175 193.981 637.773 182.122 647.153C170.264 656.533 176.584 691.535 186.081 717.758L190.332 721.304Z" fill="#FF8176"/>
<path d="M224.651 663.956C224.651 663.956 227.146 682.545 190.332 721.304L216.215 659.384" stroke="#FFCEC6" stroke-width="0.7969" stroke-miterlimit="10" stroke-linecap="round" stroke-linejoin="round"/>
<path d="M206.281 655.354L190.333 721.304C190.333 721.304 182.115 705.635 197.432 654.321" stroke="#FFCEC6" stroke-width="0.7969" stroke-miterlimit="10" stroke-linecap="round" stroke-linejoin="round"/>
<path d="M184.836 654.645C184.836 654.645 174.788 685.405 190.332 721.304" stroke="#FFCEC6" stroke-width="0.7969" stroke-miterlimit="10" stroke-linecap="round" stroke-linejoin="round"/>
<path d="M187.898 723.088C187.898 723.088 137.177 718.14 124.016 741.782C110.855 765.424 136.554 789.076 151.653 788.296C166.752 787.516 181.868 755.319 189.31 728.44L187.898 723.088Z" fill="#FF8176"/>
<path d="M126.71 749.97C126.71 749.97 135.44 733.37 187.898 723.088L130.94 758.583" stroke="#FFCEC6" stroke-width="0.7969" stroke-miterlimit="10" stroke-linecap="round" stroke-linejoin="round"/>
<path d="M136.706 767.621L187.898 723.088C187.898 723.088 185.524 740.621 143.323 773.587" stroke="#FFCEC6" stroke-width="0.7969" stroke-miterlimit="10" stroke-linecap="round" stroke-linejoin="round"/>
<path d="M153.779 780.616C153.779 780.616 179.783 761.357 187.898 723.088" stroke="#FFCEC6" stroke-width="0.7969" stroke-miterlimit="10" stroke-linecap="round" stroke-linejoin="round"/>
<path d="M173.037 722.368C173.577 716.87 175.691 712.583 179.38 709.508C183.069 706.436 187.663 705.169 193.164 705.709C198.66 706.248 202.876 708.381 205.805 712.102C208.733 715.826 209.93 720.438 209.39 725.936C208.85 731.436 206.78 735.726 203.184 738.807C199.588 741.89 195.037 743.159 189.542 742.62C184.042 742.08 179.781 739.946 176.76 736.213C173.738 732.483 172.497 727.869 173.037 722.368Z" fill="#00537E"/>
<path d="M180.052 723.046C180.383 719.668 181.683 717.034 183.949 715.145C186.215 713.258 189.038 712.479 192.418 712.811C195.794 713.142 198.385 714.452 200.184 716.739C201.983 719.027 202.718 721.861 202.387 725.239C202.055 728.619 200.783 731.254 198.574 733.147C196.364 735.041 193.568 735.821 190.192 735.49C186.812 735.158 184.195 733.847 182.339 731.554C180.482 729.261 179.72 726.426 180.052 723.046Z" fill="#566F94"/>
</g>
<path d="M1996.4 744.165C1996.4 744.165 1874.98 686.096 1826.69 567.833" stroke="#35A58A" stroke-width="2.8545" stroke-miterlimit="10"/>
<path d="M1943.27 708.716C1943.27 708.716 1961.64 672.178 1933.59 652.001C1933.59 652.001 1914.84 679.984 1943.27 708.716Z" fill="#35A58A"/>
<path d="M1884.88 711.84C1884.88 711.84 1917.72 736.213 1942.42 712.05C1942.42 712.05 1918.07 688.77 1884.88 711.84Z" fill="#35A58A"/>
<path d="M1905.31 677.202C1905.31 677.202 1923.39 646.429 1900.12 627.251C1900.12 627.251 1882.19 650.552 1905.31 677.202Z" fill="#35A58A"/>
<path d="M1854.27 676.585C1854.27 676.585 1881.48 699.691 1904.37 680.057C1904.37 680.057 1884.5 658.389 1854.27 676.585Z" fill="#35A58A"/>
<path d="M1870.11 641.695C1870.11 641.695 1894.03 618.146 1877.56 595.057C1877.56 595.057 1855.6 611.855 1870.11 641.695Z" fill="#35A58A"/>
<path d="M1825.26 627.215C1825.26 627.215 1844.35 654.831 1869.92 642.571C1869.92 642.571 1857.15 618.048 1825.26 627.215Z" fill="#35A58A"/>
<path d="M1844.49 603.217C1844.49 603.217 1864.71 584.163 1851.5 564.759C1851.5 564.759 1833.02 578.262 1844.49 603.217Z" fill="#35A58A"/>
<path d="M1807.64 590.424C1807.64 590.424 1822.94 613.622 1844.32 603.939C1844.32 603.939 1834.2 583.415 1807.64 590.424Z" fill="#35A58A"/>
<path d="M1829.24 576.181C1829.24 576.181 1842.31 548.928 1816.79 531.971C1816.79 531.971 1806.57 559.097 1829.24 576.181Z" fill="#35A58A"/>
<path d="M1880.95 463.367C1880.95 463.367 1810.13 473.95 1797.9 405.579C1797.9 405.579 1861.02 408.884 1880.95 463.367Z" fill="#566F94"/>
<path d="M1875.83 372.696C1875.83 372.696 1820.5 318.478 1874.66 239.758C1874.66 239.758 1926.3 292.945 1875.83 372.696Z" fill="#566F94"/>
<path d="M1935.57 457.053C1935.57 457.053 1899 448.928 1916.13 367.292C1916.13 367.292 1978.47 408.706 1935.57 457.053Z" fill="#566F94"/>
<path d="M1904.88 512.157C1904.88 512.157 1864.58 484.086 1829.79 520.597C1829.79 520.597 1874.58 560.575 1904.88 512.157Z" fill="#566F94"/>
<path d="M1997.25 553.444C1997.25 553.444 1845.5 455.57 1872.03 278.992" stroke="#00537E" stroke-width="3.7418" stroke-miterlimit="10" stroke-linecap="round" stroke-linejoin="round"/>
<path d="M1814.54 421.48C1814.54 421.48 1856.44 466.647 1916.27 470.177" stroke="#00537E" stroke-width="3.7418" stroke-miterlimit="10" stroke-linecap="round" stroke-linejoin="round"/>
<path d="M1850.41 522.068C1850.41 522.068 1892.62 528.511 1933.39 493.162" stroke="#00537E" stroke-width="3.7418" stroke-miterlimit="10" stroke-linecap="round" stroke-linejoin="round"/>
<path d="M1929.37 484.292C1929.37 484.292 1951.35 437.304 1926.95 394.365" stroke="#00537E" stroke-width="3.7418" stroke-miterlimit="10" stroke-linecap="round" stroke-linejoin="round"/>
<path d="M371.486 836.338C371.486 836.338 365.49 998.066 212.868 1158.21" stroke="#566F94" stroke-width="3.781" stroke-miterlimit="10"/>
<path d="M347.54 961.07C347.54 961.07 368.854 918.344 411.854 929.404C411.854 929.404 390.539 972.129 347.54 961.07Z" fill="#00537E"/>
<path d="M401.637 934.94C401.637 934.94 357.404 954.169 339.102 966.731" stroke="#566F94" stroke-width="1.8905" stroke-miterlimit="10"/>
<path d="M310.081 1040.3C310.081 1040.3 339.626 984.339 396.265 1000.31C396.265 1000.31 366.719 1056.27 310.081 1040.3Z" fill="#00537E"/>
<path d="M382.559 1007.33C382.559 1007.33 323.363 1031.46 298.727 1047.55" stroke="#566F94" stroke-width="2.5057" stroke-miterlimit="10"/>
<path d="M253.211 1120.09C253.211 1120.09 291.175 1058.47 354.599 1080.98C354.599 1080.98 316.635 1142.61 253.211 1120.09Z" fill="#00537E"/>
<path d="M338.425 1087.96C338.425 1087.96 269.039 1111.01 239.705 1127.49" stroke="#566F94" stroke-width="2.8658" stroke-miterlimit="10"/>
<path d="M262.953 1085.49C262.953 1085.49 231.212 1030.75 274.81 991.223C274.81 991.223 306.551 1045.97 262.953 1085.49Z" fill="#00537E"/>
<path d="M273.487 1006.57C273.487 1006.57 262.51 1069.54 263.065 1098.96" stroke="#566F94" stroke-width="2.5057" stroke-miterlimit="10"/>
<path d="M326.099 979.642C326.099 979.642 299.277 951.26 319.86 921.346C319.86 921.346 346.681 949.728 326.099 979.642Z" fill="#00537E"/>
<path d="M321.24 930.749C321.24 930.749 323.572 970.126 328.075 987.715" stroke="#566F94" stroke-width="1.5461" stroke-miterlimit="10"/>
<path d="M389.787 837.557C389.787 837.557 458.71 835.429 453.636 813.295C447.768 787.696 408.805 812.337 384.913 829.002C361.021 845.667 389.787 837.557 389.787 837.557Z" fill="#FF4537"/>
<path d="M444.865 817.333C444.865 817.333 417.35 831.006 384.491 834.995C384.491 834.995 423.592 812.28 441.003 809.944" stroke="#FF6033" stroke-width="1.155" stroke-miterlimit="10" stroke-linecap="round" stroke-linejoin="round"/>
<path d="M387.289 827.056C387.289 827.056 444.605 788.719 428.571 772.64C410.027 754.043 390.049 795.59 378.621 822.385C367.193 849.18 387.289 827.056 387.289 827.056Z" fill="#FF4537"/>
<path d="M423.274 780.713C423.274 780.713 407.189 806.891 381.441 827.691C381.441 827.691 402.558 787.704 416.084 776.494" stroke="#FF6033" stroke-width="1.155" stroke-miterlimit="10" stroke-linecap="round" stroke-linejoin="round"/>
<path d="M377.775 824.527C377.775 824.527 404.146 760.813 381.882 756.347C356.132 751.182 362.594 796.827 367.973 825.457C373.352 854.086 377.775 824.527 377.775 824.527Z" fill="#FF4537"/>
<path d="M381.961 766.002C381.961 766.002 383.124 796.705 373.264 828.302C373.264 828.302 368.616 783.322 373.638 766.487" stroke="#FF6033" stroke-width="1.155" stroke-miterlimit="10" stroke-linecap="round" stroke-linejoin="round"/>
<path d="M367.175 822.491C367.175 822.491 355.766 754.486 334.519 762.5C309.946 771.769 339.619 807.05 359.356 828.475C379.092 849.901 367.175 822.491 367.175 822.491Z" fill="#FF4537"/>
<path d="M339.703 770.646C339.703 770.646 356.964 796.065 365.35 828.084C365.35 828.084 337.567 792.406 332.902 775.469" stroke="#FF6033" stroke-width="1.155" stroke-miterlimit="10" stroke-linecap="round" stroke-linejoin="round"/>
<path d="M359.907 850.308C359.907 850.308 308.946 896.761 327.198 910.27C348.307 925.894 361.869 881.834 369.174 853.634C376.48 825.435 359.907 850.308 359.907 850.308Z" fill="#FF4537"/>
<path d="M331.233 901.498C331.233 901.498 343.236 873.214 365.596 848.809C365.596 848.809 350.676 891.497 338.972 904.598" stroke="#FF6033" stroke-width="1.155" stroke-miterlimit="10" stroke-linecap="round" stroke-linejoin="round"/>
<path d="M368.636 856.658C368.636 856.658 350.045 923.06 372.683 924.841C398.865 926.901 387.01 882.351 378.258 854.566C369.506 826.782 368.636 856.658 368.636 856.658Z" fill="#FF4537"/>
<path d="M371.454 915.265C371.454 915.265 366.64 884.919 372.665 852.372C372.665 852.372 382.64 896.478 379.66 913.791" stroke="#FF6033" stroke-width="1.155" stroke-miterlimit="10" stroke-linecap="round" stroke-linejoin="round"/>
<path d="M377.507 852.39C377.507 852.39 398.926 917.934 418.741 906.843C441.657 894.015 407.057 863.551 384.347 845.307C361.637 827.063 377.507 852.39 377.507 852.39Z" fill="#FF4537"/>
<path d="M412.4 899.561C412.4 899.561 391.543 876.999 378.477 846.588C378.477 846.588 411.268 877.726 418.406 893.778" stroke="#FF6033" stroke-width="1.155" stroke-miterlimit="10" stroke-linecap="round" stroke-linejoin="round"/>
<path d="M355.972 826.144C355.972 826.144 312.396 772.703 297.902 790.183C281.139 810.4 324.386 826.367 352.14 835.214C379.895 844.061 355.972 826.144 355.972 826.144Z" fill="#FF4537"/>
<path d="M306.439 794.694C306.439 794.694 334.019 808.236 357.156 831.906C357.156 831.906 315.354 814.658 302.918 802.251" stroke="#FF6033" stroke-width="1.155" stroke-miterlimit="10" stroke-linecap="round" stroke-linejoin="round"/>
<path d="M349.151 834.509C349.151 834.509 283.874 812.29 280.849 834.795C277.35 860.823 322.486 851.44 350.71 844.231C378.934 837.023 349.151 834.509 349.151 834.509Z" fill="#FF4537"/>
<path d="M290.479 834.096C290.479 834.096 321.044 830.961 353.209 838.768C353.209 838.768 308.621 846.299 291.498 842.37" stroke="#FF6033" stroke-width="1.155" stroke-miterlimit="10" stroke-linecap="round" stroke-linejoin="round"/>
<path d="M352.924 843.602C352.924 843.602 286.3 861.38 296.284 881.775C307.831 905.363 340.153 872.492 359.62 850.821C379.087 829.15 352.924 843.602 352.924 843.602Z" fill="#FF4537"/>
<path d="M303.903 875.845C303.903 875.845 327.579 856.262 358.664 844.89C358.664 844.89 325.768 875.917 309.347 882.16" stroke="#FF6033" stroke-width="1.155" stroke-miterlimit="10" stroke-linecap="round" stroke-linejoin="round"/>
<path d="M386.882 847.04C386.882 847.04 439.786 891.266 450.709 871.358C463.342 848.334 417.854 840.841 388.927 837.408C360 833.975 386.882 847.04 386.882 847.04Z" fill="#FF4537"/>
<path d="M441.473 868.545C441.473 868.545 411.828 860.468 384.629 841.606C384.629 841.606 428.94 850.629 443.5 860.458" stroke="#FF6033" stroke-width="1.155" stroke-miterlimit="10" stroke-linecap="round" stroke-linejoin="round"/>
<path d="M358.931 848.428C355.586 844.577 354.051 840.438 354.33 836.013C354.61 831.589 356.676 827.703 360.528 824.356C364.377 821.012 368.483 819.536 372.837 819.934C377.193 820.333 381.046 822.457 384.392 826.308C387.739 830.16 389.302 834.271 389.087 838.638C388.873 843.007 386.837 846.865 382.988 850.208C379.136 853.555 375 855.059 370.58 854.716C366.161 854.376 362.278 852.28 358.931 848.428Z" fill="#FFB700"/>
<path d="M365.093 843.074C363.367 841.087 362.575 838.951 362.719 836.668C362.864 834.385 363.929 832.38 365.917 830.653C367.903 828.928 370.022 828.166 372.269 828.371C374.517 828.577 376.505 829.673 378.231 831.66C379.958 833.648 380.765 835.769 380.654 838.022C380.544 840.276 379.493 842.267 377.507 843.992C375.519 845.719 373.385 846.495 371.104 846.318C368.823 846.143 366.82 845.062 365.093 843.074Z" fill="#EA8E0A"/>
<path d="M102.546 291.881C102.546 291.881 66.616 328.637 127.427 392.802C127.427 392.802 174.766 416.184 201.346 321.598" stroke="#566F94" stroke-width="2.8545" stroke-miterlimit="10"/>
<path d="M127.346 287.67C127.346 287.67 101.755 333.887 127.427 392.802C127.427 392.802 166.835 367.956 176.647 308.753" stroke="#566F94" stroke-width="2.8545" stroke-miterlimit="10"/>
<path d="M151.065 297.77C151.065 297.77 134.962 465.926 21.971 593.677" stroke="#566F94" stroke-width="2.8545" stroke-miterlimit="10"/>
<path d="M127.426 392.802C127.426 392.802 112.087 386.673 104.978 399.268C104.978 399.268 117.573 406.376 127.426 392.802Z" fill="#00537E"/>
<path d="M126.587 393.202C126.587 393.202 123.686 409.464 137.458 413.879C137.458 413.879 141.873 400.107 126.587 393.202Z" fill="#00537E"/>
<path d="M114.926 430.664C114.926 430.664 87.124 419.555 74.239 442.383C74.239 442.383 97.067 455.267 114.926 430.664Z" fill="#00537E"/>
<path d="M113.405 431.389C113.405 431.389 108.147 460.863 133.108 468.866C133.108 468.866 141.111 443.905 113.405 431.389Z" fill="#00537E"/>
<path d="M95.392 479.559C95.392 479.559 57.964 464.604 40.618 495.335C40.618 495.335 71.349 512.681 95.392 479.559Z" fill="#00537E"/>
<path d="M93.345 480.534C93.345 480.534 86.267 520.213 119.87 530.987C119.87 530.987 130.644 497.384 93.345 480.534Z" fill="#00537E"/>
<path d="M65.859 535.12C65.859 535.12 23.208 514.111 2.17034e-08 548.666C2.17034e-08 548.666 34.555 571.875 65.859 535.12Z" fill="#00537E"/>
<path d="M63.361 536.08C63.361 536.08 51.409 582.098 89.944 597.84C89.944 597.84 105.686 559.306 63.361 536.08Z" fill="#00537E"/>
<path d="M83.882 297.423C83.417 293.6 84.565 289.956 87.323 286.487C90.078 283.021 93.348 281.108 97.13 280.757C100.911 280.405 104.536 281.605 108.005 284.363C111.473 287.12 113.462 290.382 113.973 294.146C114.483 297.909 113.358 301.527 110.603 304.993C107.845 308.462 104.552 310.402 100.725 310.812C96.896 311.222 93.247 310.048 89.78 307.291C86.31 304.533 84.345 301.244 83.882 297.423Z" fill="#EA8E0A"/>
<path d="M83.632 298.801C84.32 302.242 86.253 305.243 89.461 307.793C92.999 310.606 96.723 311.804 100.629 311.386C104.534 310.967 107.894 308.988 110.708 305.448C111.178 304.857 111.583 304.259 111.957 303.659C102.351 302.973 93.064 300.697 83.632 298.801Z" fill="#566F94"/>
<path d="M114.898 274.832C114.936 270.982 116.55 267.518 119.737 264.439C122.921 261.362 126.412 259.892 130.208 260.038C134.002 260.182 137.44 261.846 140.52 265.033C143.598 268.219 145.144 271.713 145.16 275.511C145.174 279.308 143.587 282.748 140.403 285.825C137.216 288.905 133.698 290.397 129.85 290.305C126.001 290.211 122.536 288.571 119.458 285.386C116.378 282.198 114.859 278.681 114.898 274.832Z" fill="#EA8E0A"/>
<path d="M114.47 276.166C114.703 279.668 116.228 282.895 119.076 285.842C122.217 289.092 125.752 290.766 129.68 290.862C133.606 290.956 137.196 289.433 140.448 286.291C140.991 285.766 141.47 285.227 141.92 284.681C132.485 282.745 123.574 279.276 114.47 276.166Z" fill="#566F94"/>
<path d="M132.814 308.407C132.852 304.557 134.466 301.093 137.653 298.013C140.837 294.936 144.328 293.466 148.124 293.612C151.918 293.756 155.356 295.42 158.436 298.607C161.514 301.793 163.06 305.287 163.076 309.085C163.09 312.882 161.503 316.322 158.319 319.399C155.132 322.479 151.614 323.971 147.766 323.879C143.917 323.785 140.452 322.145 137.374 318.96C134.294 315.773 132.774 312.256 132.814 308.407Z" fill="#EA8E0A"/>
<path d="M132.386 309.741C132.62 313.243 134.144 316.47 136.992 319.417C140.133 322.667 143.668 324.341 147.596 324.437C151.522 324.531 155.112 323.008 158.364 319.866C158.907 319.341 159.386 318.802 159.836 318.256C150.401 316.32 141.49 312.851 132.386 309.741Z" fill="#566F94"/>
<path d="M164.552 292.426C165.291 288.647 167.508 285.535 171.203 283.088C174.894 280.642 178.595 279.833 182.301 280.667C186.006 281.5 189.083 283.762 191.531 287.456C193.978 291.149 194.862 294.866 194.185 298.604C193.507 302.34 191.32 305.434 187.629 307.88C183.935 310.328 180.203 311.155 176.436 310.363C172.668 309.57 169.56 307.326 167.114 303.633C164.666 299.938 163.812 296.203 164.552 292.426Z" fill="#EA8E0A"/>
<path d="M163.888 293.66C163.48 297.146 164.391 300.596 166.655 304.013C169.151 307.781 172.322 310.071 176.167 310.88C180.011 311.688 183.818 310.844 187.587 308.346C188.217 307.929 188.786 307.486 189.327 307.031C180.404 303.409 172.274 298.376 163.888 293.66Z" fill="#566F94"/>
<path d="M186.389 322.538C187.128 318.759 189.345 315.647 193.04 313.199C196.731 310.754 200.432 309.944 204.138 310.779C207.843 311.612 210.92 313.874 213.368 317.568C215.815 321.261 216.699 324.978 216.022 328.716C215.344 332.452 213.157 335.546 209.466 337.992C205.771 340.44 202.04 341.267 198.273 340.475C194.505 339.682 191.397 337.438 188.951 333.745C186.503 330.051 185.65 326.316 186.389 322.538Z" fill="#EA8E0A"/>
<path d="M185.726 323.772C185.318 327.258 186.229 330.708 188.493 334.125C190.989 337.893 194.16 340.183 198.005 340.992C201.849 341.8 205.656 340.956 209.425 338.458C210.055 338.041 210.624 337.598 211.165 337.143C202.241 333.522 194.111 328.488 185.726 323.772Z" fill="#566F94"/>
<path d="M491.145 997.388C491.145 997.388 475.834 1050.18 418.1 1114.1" stroke="#566F94" stroke-width="3.7" stroke-miterlimit="10"/>
<path d="M446.439 1093.4C446.439 1093.4 499.186 1107.27 522.066 1062.01C522.066 1062.01 469.319 1048.14 446.439 1093.4Z" fill="#00537E"/>
<path d="M509.618 1066.61C509.618 1066.61 459.795 1090.13 435.223 1096.39" stroke="#566F94" stroke-width="2.1594" stroke-miterlimit="10"/>
<path d="M488.843 978.546C488.843 978.546 469.925 933.719 485.613 930.46C503.756 926.69 499.42 958.928 495.764 979.155C492.108 999.381 488.843 978.546 488.843 978.546Z" fill="#FF4537"/>
<path d="M485.604 937.272C485.604 937.272 484.933 958.941 492.044 981.187C492.044 981.187 495.104 949.427 491.479 937.573" stroke="#FF6033" stroke-width="0.8149" stroke-miterlimit="10" stroke-linecap="round" stroke-linejoin="round"/>
<path d="M496.313 977.058C496.313 977.058 504.032 929.019 519.062 934.57C536.445 940.99 515.68 966.028 501.859 981.242C488.038 996.456 496.313 977.058 496.313 977.058Z" fill="#FF4537"/>
<path d="M515.443 940.342C515.443 940.342 503.388 958.361 497.627 980.995C497.627 980.995 517.056 955.685 520.265 943.712" stroke="#FF6033" stroke-width="0.8149" stroke-miterlimit="10" stroke-linecap="round" stroke-linejoin="round"/>
<path d="M500.734 982.415C500.734 982.415 533.833 946.754 543.249 959.718C554.139 974.711 522.965 984 503.022 988.976C483.079 993.95 500.734 982.415 500.734 982.415Z" fill="#FF4537"/>
<path d="M537.034 962.508C537.034 962.508 517.002 970.797 499.64 986.419C499.64 986.419 529.854 976.163 539.172 967.988" stroke="#FF6033" stroke-width="0.8149" stroke-miterlimit="10" stroke-linecap="round" stroke-linejoin="round"/>
<path d="M505.159 988.614C505.159 988.614 552.128 975.918 553.241 991.902C554.528 1010.39 523.17 1001.74 503.622 995.389C484.074 989.037 505.159 988.614 505.159 988.614Z" fill="#FF4537"/>
<path d="M546.492 990.974C546.492 990.974 525.111 987.385 502.109 991.429C502.109 991.429 533.166 998.747 545.4 996.754" stroke="#FF6033" stroke-width="0.8149" stroke-miterlimit="10" stroke-linecap="round" stroke-linejoin="round"/>
<path d="M489.459 1001.46C489.459 1001.46 474.666 1047.81 460.631 1040.08C444.399 1031.14 468.664 1009.48 484.599 996.496C500.533 983.512 489.459 1001.46 489.459 1001.46Z" fill="#FF4537"/>
<path d="M465.069 1034.91C465.069 1034.91 479.675 1018.89 488.746 997.371C488.746 997.371 465.761 1019.5 460.803 1030.86" stroke="#FF6033" stroke-width="0.8149" stroke-miterlimit="10" stroke-linecap="round" stroke-linejoin="round"/>
<path d="M482.818 997.731C482.818 997.731 445.705 1029.19 437.901 1015.2C428.875 999.017 460.934 993.509 481.328 990.945C501.721 988.382 482.818 997.731 482.818 997.731Z" fill="#FF4537"/>
<path d="M444.404 1013.17C444.404 1013.17 465.281 1007.33 484.381 993.886C484.381 993.886 453.16 1000.47 442.934 1007.48" stroke="#FF6033" stroke-width="0.8149" stroke-miterlimit="10" stroke-linecap="round" stroke-linejoin="round"/>
<path d="M482.944 990.786C482.944 990.786 434.607 996.338 435.889 980.367C437.372 961.896 467.091 975.12 485.474 984.315C503.857 993.51 482.944 990.786 482.944 990.786Z" fill="#FF4537"/>
<path d="M442.425 982.291C442.425 982.291 463.032 989.027 486.38 988.457C486.38 988.457 456.761 976.591 444.367 976.738" stroke="#FF6033" stroke-width="0.8149" stroke-miterlimit="10" stroke-linecap="round" stroke-linejoin="round"/>
<path d="M506.114 996.873C506.114 996.873 553.21 1009.09 546.265 1023.53C538.233 1040.23 515.266 1017.19 501.425 1002C487.583 986.804 506.114 996.873 506.114 996.873Z" fill="#FF4537"/>
<path d="M540.859 1019.38C540.859 1019.38 524.058 1005.68 502.07 997.81C502.07 997.81 525.432 1019.54 537.049 1023.87" stroke="#FF6033" stroke-width="0.8149" stroke-miterlimit="10" stroke-linecap="round" stroke-linejoin="round"/>
<path d="M502.756 1003.71C502.756 1003.71 536.215 1039.03 522.673 1047.6C507.01 1057.5 499.745 1025.79 496.063 1005.57C492.38 985.349 502.756 1003.71 502.756 1003.71Z" fill="#FF4537"/>
<path d="M520.287 1041.21C520.287 1041.21 513.303 1020.69 498.83 1002.36C498.83 1002.36 507.122 1033.17 514.68 1043" stroke="#FF6033" stroke-width="0.8149" stroke-miterlimit="10" stroke-linecap="round" stroke-linejoin="round"/>
<path d="M495.815 1003.97C495.815 1003.97 504.02 1051.92 488.003 1051.52C469.478 1051.06 481.046 1020.66 489.215 1001.8C497.383 982.934 495.815 1003.97 495.815 1003.97Z" fill="#FF4537"/>
<path d="M489.563 1044.89C489.563 1044.89 495.154 1023.94 493.299 1000.66C493.299 1000.66 483.082 1030.89 483.911 1043.26" stroke="#FF6033" stroke-width="0.8149" stroke-miterlimit="10" stroke-linecap="round" stroke-linejoin="round"/>
<path d="M483.616 983.2C483.616 983.2 439.685 962.287 449.238 949.424C460.286 934.547 478.477 961.513 489.191 979.054C499.906 996.594 483.616 983.2 483.616 983.2Z" fill="#FF4537"/>
<path d="M453.76 954.519C453.76 954.519 467.663 971.153 487.764 983.046C487.764 983.046 468.938 957.285 458.35 950.839" stroke="#FF6033" stroke-width="0.8149" stroke-miterlimit="10" stroke-linecap="round" stroke-linejoin="round"/>
<path d="M483.491 995.913C481.97 993.179 481.718 990.084 482.731 986.629C483.743 983.176 485.618 980.735 488.356 979.313C491.093 977.89 494.189 977.683 497.645 978.695C501.099 979.707 503.595 981.553 505.133 984.229C506.669 986.905 506.931 989.972 505.919 993.424C504.906 996.88 503.022 999.348 500.268 1000.83C497.512 1002.31 494.406 1002.54 490.952 1001.53C487.497 1000.52 485.01 998.647 483.491 995.913Z" fill="#FFB700"/>
<path d="M488.722 993.106C487.937 991.695 487.807 990.099 488.33 988.315C488.852 986.534 489.819 985.274 491.233 984.54C492.645 983.806 494.243 983.699 496.026 984.221C497.808 984.743 499.096 985.696 499.89 987.077C500.683 988.458 500.818 990.04 500.296 991.822C499.774 993.605 498.801 994.879 497.38 995.643C495.958 996.407 494.355 996.528 492.573 996.006C490.789 995.483 489.506 994.517 488.722 993.106Z" fill="#EA8E0A"/>
<path d="M1180 1110.42C1086.68 996.508 1039.46 888.672 1039 887.596L1042.8 885.95C1043.26 887.02 1090.27 994.356 1183.2 1107.79L1180 1110.42Z" fill="#35A58A"/>
<path d="M1098.87 991.752C1098.87 991.752 1093.52 961.265 1107.01 962.266C1120.51 963.267 1104.27 983.593 1098.87 991.752Z" fill="#35A58A"/>
<path d="M1098.15 992.313C1098.15 992.313 1074.62 972.574 1065.95 985.134C1057.28 997.693 1098.15 992.313 1098.15 992.313Z" fill="#35A58A"/>
<path d="M1120.65 1028.3C1120.65 1028.3 1114.02 990.529 1130.74 991.769C1147.46 993.011 1127.35 1018.19 1120.65 1028.3Z" fill="#35A58A"/>
<path d="M1119.76 1029C1119.76 1029 1090.61 1004.54 1079.87 1020.1C1069.13 1035.66 1119.76 1029 1119.76 1029Z" fill="#35A58A"/>
<path d="M1148.61 1064.83C1148.61 1064.83 1140.26 1033.52 1154.43 1033.34C1168.59 1033.16 1153.51 1055.83 1148.61 1064.83Z" fill="#35A58A"/>
<path d="M1147.91 1065.48C1147.91 1065.48 1121.58 1047.03 1113.68 1060.92C1105.78 1074.8 1147.91 1065.48 1147.91 1065.48Z" fill="#35A58A"/>
<path d="M1019.38 891.502C1019.38 891.502 949.419 934.561 958.948 951.481C968.477 968.401 1017.98 901.362 1017.98 901.362C1017.98 901.362 974.052 968.539 988.113 983.097C1002.17 997.655 1030.86 897.628 1030.86 897.628C1030.86 897.628 1026.21 983.513 1050.02 986.839C1073.83 990.165 1044.68 894.443 1044.68 894.443C1044.68 894.443 1084.38 963.688 1101.96 955.176C1119.54 946.663 1053.25 886.287 1053.25 886.287C1053.25 886.287 1130.12 934.031 1141.19 914.146C1152.26 894.262 1062.15 873.296 1062.15 873.296C1062.15 873.296 1134.71 884.565 1139 864.46C1143.28 844.356 1054.54 863.792 1054.54 863.792L1019.38 891.502Z" fill="#FF6033"/>
<path d="M1015.51 894.879C1015.51 894.879 992.873 865.521 1015.46 845.825C1033.53 830.062 1057.97 863.298 1057.97 863.298C1057.97 863.298 1050.61 892.906 1015.51 894.879Z" fill="#FFB700"/>
<path d="M1038.26 862.366C1032.76 868.496 1024.81 873.906 1016.18 873.079C1012.09 872.687 1008.56 871.144 1005.49 868.897C1006.19 882.774 1015.5 894.88 1015.5 894.88C1050.61 892.906 1057.97 863.299 1057.97 863.299C1057.97 863.299 1053 856.56 1045.9 850.589C1043.91 854.931 1041.31 858.955 1038.26 862.366Z" fill="#EA8E0A"/>
<path d="M62.66 1105.31L61.131 1102.62C62.395 1101.9 188.024 1029.29 230.529 899.789L233.468 900.754C190.583 1031.42 63.933 1104.58 62.66 1105.31Z" fill="#566F94"/>
<path d="M116.655 1061.56C116.655 1061.56 93.997 1023.44 122.794 999.473C122.794 999.473 145.213 1028.31 116.655 1061.56Z" fill="#566F94"/>
<path d="M180.05 1060.48C180.05 1060.48 146.39 1089.35 117.833 1065.1C117.833 1065.1 142.389 1038.06 180.05 1060.48Z" fill="#566F94"/>
<path d="M155.316 1024.57C155.316 1024.57 133.402 992.667 157.113 970.147C157.113 970.147 178.287 993.982 155.316 1024.57Z" fill="#566F94"/>
<path d="M210.468 1020.01C210.468 1020.01 182.802 1047.08 156.543 1027.59C156.543 1027.59 176.385 1002.63 210.468 1020.01Z" fill="#566F94"/>
<path d="M190.68 983.479C190.68 983.479 163.003 959.833 179.057 933.601C179.057 933.601 204.097 950.095 190.68 983.479Z" fill="#566F94"/>
<path d="M238.082 964.394C238.082 964.394 219.543 995.722 190.942 984.413C190.942 984.413 202.889 956.912 238.082 964.394Z" fill="#566F94"/>
<path d="M215.451 939.904C215.451 939.904 192.12 920.838 204.93 898.84C204.93 898.84 225.949 912.036 215.451 939.904Z" fill="#566F94"/>
<path d="M254.331 923.252C254.331 923.252 239.557 949.512 215.686 940.671C215.686 940.671 225.073 917.698 254.331 923.252Z" fill="#566F94"/>
<path d="M229.877 909.495C229.877 909.495 213.66 881.014 239.972 860.725C239.972 860.725 253.094 889.286 229.877 909.495Z" fill="#566F94"/>
<path d="M753.217 948.609C753.217 948.609 703.741 946.554 712.505 927.614C721.269 908.673 739.856 933.065 753.217 948.609Z" fill="#FF4537"/>
<path d="M753.076 948.542C753.076 948.542 719.545 912.104 739.134 904.909C758.724 897.713 754.619 928.103 753.076 948.542Z" fill="#FF4537"/>
<path d="M752.834 949.153C752.834 949.153 754.889 899.677 773.829 908.442C792.769 917.206 768.377 935.793 752.834 949.153Z" fill="#FF4537"/>
<path d="M752.901 949.013C752.901 949.013 789.339 915.482 796.534 935.071C803.73 954.661 773.339 950.556 752.901 949.013Z" fill="#FF4537"/>
<path d="M752.011 948.044C752.011 948.044 801.486 950.099 792.722 969.039C783.959 987.979 765.372 963.587 752.011 948.044Z" fill="#FF4537"/>
<path d="M752.151 948.111C752.151 948.111 785.682 984.548 766.093 991.744C746.504 998.94 750.608 968.549 752.151 948.111Z" fill="#FF4537"/>
<path d="M752.393 947.499C752.393 947.499 750.338 996.974 731.398 988.21C712.458 979.447 736.85 960.86 752.393 947.499Z" fill="#FF4537"/>
<path d="M752.327 947.64C752.327 947.64 715.889 981.171 708.694 961.581C701.498 941.992 731.888 946.097 752.327 947.64Z" fill="#FF4537"/>
<path d="M754.659 962.516C751.106 962.802 747.796 961.683 744.731 959.16C741.666 956.638 739.932 953.605 739.524 950.061C739.124 946.522 740.127 943.28 742.548 940.337C744.964 937.401 747.975 935.765 751.585 935.404C755.196 935.057 758.529 936.146 761.594 938.668C764.659 941.191 766.37 944.252 766.72 947.859C767.068 951.476 766.035 954.741 763.619 957.676C761.198 960.62 758.217 962.233 754.659 962.516Z" fill="#FFB83B"/>
<path d="M756.817 847.555C756.817 847.555 735.997 846.69 739.685 838.72C743.373 830.749 751.194 841.014 756.817 847.555Z" fill="#FFCEC6"/>
<path d="M756.758 847.527C756.758 847.527 742.648 832.194 750.891 829.165C759.134 826.137 757.407 838.926 756.758 847.527Z" fill="#FFCEC6"/>
<path d="M756.656 847.784C756.656 847.784 757.521 826.964 765.491 830.652C773.461 834.34 763.197 842.161 756.656 847.784Z" fill="#FFCEC6"/>
<path d="M756.684 847.725C756.684 847.725 772.018 833.615 775.046 841.858C778.073 850.102 765.285 848.374 756.684 847.725Z" fill="#FFCEC6"/>
<path d="M756.309 847.317C756.309 847.317 777.129 848.182 773.441 856.152C769.754 864.123 761.932 853.858 756.309 847.317Z" fill="#FFCEC6"/>
<path d="M756.369 847.345C756.369 847.345 770.479 862.678 762.236 865.707C753.992 868.735 755.719 855.946 756.369 847.345Z" fill="#FFCEC6"/>
<path d="M756.471 847.088C756.471 847.088 755.606 867.908 747.636 864.22C739.665 860.532 749.93 852.71 756.471 847.088Z" fill="#FFCEC6"/>
<path d="M756.442 847.147C756.442 847.147 741.108 861.257 738.08 853.014C735.052 844.771 747.842 846.498 756.442 847.147Z" fill="#FFCEC6"/>
<path d="M757.424 853.407C755.929 853.527 754.536 853.056 753.246 851.995C751.956 850.934 751.226 849.658 751.055 848.166C750.887 846.677 751.309 845.312 752.328 844.074C753.345 842.839 754.612 842.15 756.131 841.998C757.65 841.852 759.053 842.31 760.343 843.372C761.633 844.434 762.353 845.722 762.5 847.24C762.646 848.762 762.212 850.136 761.195 851.371C760.175 852.609 758.921 853.288 757.424 853.407Z" fill="#FF645C"/>
<path d="M641.054 869.816C641.054 869.816 591.075 836.096 612.253 822.056C633.432 808.016 637.127 845.171 641.054 869.816Z" fill="#FFCEC6"/>
<path d="M640.951 869.657C640.951 869.657 629.454 810.472 654.357 815.52C679.26 820.568 655.601 849.453 640.951 869.657Z" fill="#FFCEC6"/>
<path d="M640.31 870.136C640.31 870.136 674.03 820.156 688.07 841.335C702.109 862.514 664.954 866.209 640.31 870.136Z" fill="#FFCEC6"/>
<path d="M640.469 870.033C640.469 870.033 699.654 858.536 694.606 883.439C689.557 908.342 660.672 884.683 640.469 870.033Z" fill="#FFCEC6"/>
<path d="M640.164 868.46C640.164 868.46 690.143 902.18 668.965 916.22C647.787 930.26 644.092 893.105 640.164 868.46Z" fill="#FFCEC6"/>
<path d="M640.267 868.619C640.267 868.619 651.764 927.803 626.861 922.755C601.958 917.708 625.618 888.823 640.267 868.619Z" fill="#FFCEC6"/>
<path d="M640.909 868.14C640.909 868.14 607.189 918.119 593.15 896.941C579.109 875.762 616.264 872.067 640.909 868.14Z" fill="#FFCEC6"/>
<path d="M640.75 868.243C640.75 868.243 581.565 879.74 586.613 854.837C591.661 829.934 620.546 853.593 640.75 868.243Z" fill="#FFCEC6"/>
<path d="M633.67 885.155C629.804 883.182 627.087 879.909 625.52 875.337C623.953 870.765 624.091 866.514 625.932 862.579C627.777 858.654 630.886 855.934 635.276 854.429C639.655 852.928 643.822 853.155 647.794 855.085C651.759 857.03 654.519 860.288 656.086 864.86C657.653 869.432 657.472 873.698 655.533 877.661C653.584 881.633 650.429 884.358 646.05 885.859C641.659 887.363 637.538 887.133 633.67 885.155Z" fill="#FFB83B"/>
<path d="M1558.67 184.003C1558.67 184.003 1378.6 134.197 1378.6 291.278C1378.6 448.359 1263.06 397.882 1319.21 498.166C1346.03 546.057 1233.01 517.322 1282.82 634.175C1332.62 751.028 1554.84 752.944 1554.84 752.944L1558.67 184.003Z" fill="#07171E"/>
<path d="M1502.83 443.539C1502.83 443.539 1510.84 531.299 1483.26 530.531C1455.68 529.763 1483.03 568.557 1547.17 565.003C1611.32 561.449 1610.14 532.582 1593.33 527.188C1576.52 521.794 1608.5 382.991 1608.5 382.991L1502.83 443.539Z" fill="#FFCEC6"/>
<path d="M1501.49 491.329C1524 484.671 1547.97 473.059 1563.47 455.8C1579.16 438.337 1593.49 415.362 1593.56 391.549L1501.33 429.399C1501.33 429.399 1506.62 469.379 1501.49 491.329Z" fill="#FF9E94"/>
<path d="M1352.02 620.956C1352.02 620.956 1334.98 716.007 1354.65 759.855C1374.32 803.703 1419.23 691.85 1419.23 691.85L1395.87 607.432L1349.56 621.365" fill="#FF9E94"/>
<path d="M1390.09 699.307C1390.09 699.307 1202.36 775.932 1229.18 1080.52H1635.29C1635.29 1080.52 1627.63 756.776 1610.39 718.464C1593.15 680.152 1390.09 699.307 1390.09 699.307Z" fill="#35A58A"/>
<path d="M1475.09 1030.15C1492.96 987.139 1503.94 939.432 1503.16 892.677C1502.43 848.465 1492.05 805.031 1463.75 770.244C1440.63 741.837 1407.85 715.188 1370.48 709.913C1382.44 702.449 1390.09 699.306 1390.09 699.306C1390.09 699.306 1586.83 683.677 1610.39 718.462C1704.81 857.86 1667.7 1080.52 1667.7 1080.52H1445.36C1457.87 1065.38 1467.52 1048.37 1475.09 1030.15Z" fill="#2C846D"/>
<path d="M1491.46 479.74C1491.46 479.74 1568.37 471.659 1598.77 475.035C1598.77 475.035 1596.06 502.719 1611.53 503.359C1627 503.999 1681.8 469.544 1690.12 549.872C1698.44 630.2 1591.48 819.389 1591.48 819.389C1591.48 819.389 1479.56 761.194 1367.11 716.547C1367.11 716.547 1321.13 678.234 1388.98 608.552C1437.18 559.046 1414.62 652.025 1414.62 652.025C1414.62 652.025 1370.88 649.548 1342.2 626.513C1342.2 626.513 1351.85 523.025 1404.17 506.366C1456.49 489.708 1489.06 553.955 1491.46 479.74Z" fill="#35A58A"/>
<path d="M1352.2 674.051C1357.64 677.646 1363.08 680.948 1368.24 683.987C1401.17 703.398 1437.99 700.306 1473.37 688.872C1536.41 668.499 1582.57 619.888 1620.84 567.732C1621.31 567.817 1621.79 567.866 1622.29 567.829C1644.94 566.131 1667.27 572.543 1689.14 578.659C1677 668.1 1591.48 819.389 1591.48 819.389C1591.48 819.389 1479.56 761.194 1367.11 716.547C1367.11 716.547 1349.49 701.819 1352.2 674.051Z" fill="#2C846D"/>
<path d="M1349.26 587.759C1353.68 593.419 1358.49 598.655 1364.02 603.105C1370.09 607.998 1376.61 611.615 1383.39 614.534C1375.31 623.47 1369.09 631.866 1364.43 639.693C1356.7 636.297 1349.02 631.993 1342.2 626.514C1342.2 626.514 1343.81 609.286 1349.26 587.759Z" fill="#2C846D"/>
<path d="M1368.54 320.971L1441.81 339.648" stroke="#00537E" stroke-width="5.1001" stroke-miterlimit="10"/>
<path d="M1521.28 233.796C1521.28 233.796 1443.54 233.565 1419.92 332.62C1396.3 431.676 1453.79 480.571 1511.18 470.89C1575.36 460.067 1639.41 380.568 1624.08 307.312C1608.75 234.056 1521.28 233.796 1521.28 233.796Z" fill="#FFCEC6"/>
<path d="M1610.95 383.528C1610.95 383.528 1635.3 342.18 1653.22 369.449C1671.15 396.718 1614.97 452.118 1599.89 416.373C1584.82 380.628 1610.95 383.528 1610.95 383.528Z" fill="#FFCEC6"/>
<path d="M1603.51 421.025C1603.51 421.025 1602.77 421.951 1601.52 423.617C1601.78 422.238 1603.51 421.025 1603.51 421.025Z" fill="#FF6033"/>
<path d="M1653.76 685.135C1653.76 685.135 1714.71 549.338 1673.01 512.982C1631.31 476.627 1610.99 536.506 1583.19 508.705C1558.84 484.352 1593.66 426.381 1602.44 414.609C1602.06 416.656 1604.02 428.362 1620.62 427.44C1639.86 426.371 1665.53 368.63 1645.21 361.145C1624.89 353.66 1605.65 394.292 1605.65 394.292C1532.94 377.184 1509.41 292.711 1505.14 248.871C1498.5 180.878 1551.11 172.953 1609.92 185.784C1626.49 189.397 1653.35 196.775 1661.9 207.047C1691.74 238.743 1695.2 305.985 1689.05 357.937C1689.05 357.937 1675.52 398.553 1721.5 421.54C1767.47 444.528 1773.22 484.756 1736.82 523.068C1700.42 561.381 1841.56 584.961 1763.64 676.318C1708.09 741.449 1646.79 701.221 1646.79 701.221L1653.76 685.135Z" fill="#091C23"/>
<path d="M1477.45 339.023C1477.38 339.972 1477.26 340.918 1477.09 341.847C1476.93 342.778 1476.75 343.712 1476.53 344.629C1476.09 346.468 1475.56 348.286 1474.92 350.069C1474.3 351.857 1473.57 353.611 1472.75 355.333C1472.36 356.201 1471.91 357.043 1471.46 357.889C1471.01 358.73 1470.54 359.567 1470.02 360.38C1469.53 361.204 1469 362.011 1468.45 362.803C1467.88 363.59 1467.32 364.38 1466.71 365.139C1466.11 365.903 1465.46 366.638 1464.81 367.371C1464.15 368.103 1463.45 368.793 1462.72 369.472C1462 370.154 1461.25 370.809 1460.46 371.417C1459.67 372.034 1458.86 372.627 1458 373.164C1457.13 373.684 1456.28 374.22 1455.35 374.65C1454.44 375.108 1453.47 375.466 1452.52 375.833L1453.35 371.592C1455.28 373.825 1457.15 376.108 1458.95 378.471C1459.85 379.647 1460.72 380.856 1461.58 382.078C1462.42 383.319 1463.27 384.554 1464.03 385.867C1462.72 385.108 1461.48 384.271 1460.23 383.44C1459 382.59 1457.79 381.727 1456.61 380.831C1454.23 379.049 1451.94 377.189 1449.69 375.278L1447.01 372.998L1450.52 371.036C1451.24 370.632 1451.97 370.256 1452.65 369.783C1453.36 369.366 1454.03 368.856 1454.7 368.365C1455.02 368.1 1455.35 367.847 1455.68 367.595L1456.64 366.778C1456.97 366.515 1457.27 366.211 1457.58 365.925C1457.89 365.64 1458.21 365.363 1458.51 365.055C1459.12 364.468 1459.7 363.835 1460.3 363.214C1460.88 362.581 1461.46 361.946 1462.02 361.273C1462.58 360.617 1463.14 359.944 1463.68 359.26C1464.21 358.562 1464.78 357.886 1465.3 357.173C1466.36 355.76 1467.4 354.318 1468.41 352.842C1469.43 351.367 1470.43 349.867 1471.43 348.35L1477.45 339.023Z" fill="#FF8176"/>
<path d="M1505.72 353.315C1505.72 353.315 1505.83 353.47 1506.04 353.76C1506.24 354.051 1506.58 354.455 1506.97 354.97C1507.78 355.986 1508.94 357.385 1510.41 358.859C1511.15 359.584 1511.94 360.354 1512.84 361.057C1513.73 361.766 1514.68 362.467 1515.71 363.059C1516.21 363.377 1516.76 363.627 1517.28 363.912C1517.84 364.148 1518.38 364.415 1518.95 364.614C1520.08 365.05 1521.28 365.365 1522.5 365.582C1523.11 365.675 1523.72 365.811 1524.35 365.835C1524.67 365.859 1524.98 365.887 1525.29 365.925L1526.24 365.949C1527.5 365.98 1528.78 365.939 1530.03 365.817C1530.34 365.792 1530.65 365.767 1530.96 365.743C1531.27 365.694 1531.58 365.652 1531.88 365.617C1532.5 365.54 1533.1 365.48 1533.69 365.363C1534.28 365.266 1534.86 365.171 1535.42 365.08C1535.98 364.967 1536.52 364.857 1537.05 364.752C1538.11 364.575 1539.07 364.328 1539.95 364.151C1540.83 363.98 1541.61 363.822 1542.25 363.671C1542.88 363.518 1543.41 363.445 1543.76 363.374C1544.12 363.317 1544.31 363.287 1544.31 363.287C1544.31 363.287 1544.18 363.425 1543.93 363.685C1543.67 363.93 1543.31 364.322 1542.81 364.76C1542.31 365.214 1541.71 365.767 1540.95 366.307C1540.2 366.863 1539.35 367.497 1538.35 368.068C1537.85 368.363 1537.33 368.665 1536.78 368.967C1536.21 369.235 1535.62 369.512 1535.02 369.796C1534.41 370.098 1533.75 370.3 1533.08 370.549C1532.41 370.808 1531.71 371.01 1530.98 371.185C1530.25 371.379 1529.51 371.556 1528.73 371.654C1527.96 371.782 1527.17 371.899 1526.36 371.91L1525.14 371.967C1524.73 371.961 1524.31 371.936 1523.9 371.912C1523.07 371.891 1522.23 371.751 1521.4 371.629C1520.57 371.477 1519.75 371.25 1518.94 371.018C1518.14 370.747 1517.35 370.458 1516.6 370.083C1515.08 369.393 1513.7 368.463 1512.51 367.451C1511.29 366.456 1510.31 365.314 1509.47 364.2C1508.63 363.084 1508 361.93 1507.48 360.862C1506.47 358.702 1506.03 356.787 1505.85 355.442C1505.65 354.097 1505.72 353.315 1505.72 353.315Z" fill="#00111A"/>
<path d="M1461.39 346.726C1461.39 346.726 1461.18 347.349 1460.61 348.321C1460.04 349.291 1459.12 350.63 1457.67 351.968C1456.24 353.308 1454.26 354.673 1451.71 355.491C1450.44 355.89 1449.02 356.121 1447.55 356.125C1446.08 356.122 1444.58 355.824 1443.16 355.354C1441.78 354.8 1440.44 354.134 1439.35 353.245C1439.07 353.029 1438.78 352.827 1438.52 352.601L1437.79 351.893C1437.29 351.435 1436.88 350.938 1436.48 350.438C1436.07 349.948 1435.71 349.451 1435.39 348.938C1435.07 348.432 1434.74 347.949 1434.5 347.44C1434.25 346.936 1434 346.457 1433.78 345.982C1433.6 345.496 1433.42 345.027 1433.24 344.577C1432.9 343.683 1432.7 342.822 1432.52 342.072C1432.33 341.327 1432.25 340.645 1432.18 340.092C1432.1 339.545 1432.09 339.096 1432.06 338.801C1432.05 338.5 1432.04 338.339 1432.04 338.339C1432.04 338.339 1432.16 338.45 1432.38 338.657C1432.59 338.87 1432.93 339.167 1433.29 339.568C1433.65 339.966 1434.11 340.442 1434.63 340.969C1435.14 341.496 1435.66 342.123 1436.29 342.733C1436.59 343.047 1436.9 343.374 1437.22 343.712C1437.55 344.03 1437.89 344.359 1438.23 344.696C1438.57 345.043 1438.92 345.367 1439.29 345.687C1439.66 346.01 1440 346.363 1440.4 346.65C1441.15 347.28 1441.95 347.862 1442.76 348.351C1443.56 348.871 1444.4 349.243 1445.24 349.57C1446.08 349.867 1446.94 350.061 1447.82 350.177C1448.71 350.249 1449.62 350.268 1450.53 350.185C1452.36 349.998 1454.2 349.505 1455.81 348.953C1457.42 348.408 1458.8 347.822 1459.8 347.413C1460.29 347.187 1460.71 347.038 1460.97 346.909C1461.24 346.79 1461.39 346.726 1461.39 346.726Z" fill="#00111A"/>
<path d="M1612.42 419.556C1613.33 419.369 1614.24 419.169 1615.12 418.914C1616 418.667 1616.87 418.401 1617.69 418.063C1618.5 417.723 1619.29 417.334 1619.94 416.88C1620.26 416.647 1620.55 416.403 1620.76 416.14C1621 415.889 1621.11 415.615 1621.19 415.378C1621.23 415.256 1621.23 415.136 1621.25 415.024C1621.22 414.896 1621.25 414.797 1621.21 414.666C1621.17 414.423 1621.07 414.151 1620.93 413.865C1620.84 413.719 1620.78 413.578 1620.69 413.43L1620.38 412.985C1620.14 412.691 1619.91 412.387 1619.63 412.097C1619.34 411.808 1619.09 411.511 1618.76 411.235C1618.45 410.955 1618.15 410.673 1617.81 410.405C1617.47 410.136 1617.17 409.853 1616.81 409.596L1615.77 408.814L1614.74 408.043L1615 406.524C1615.26 404.959 1615.57 403.457 1615.89 401.931C1616.21 400.412 1616.57 398.903 1616.93 397.393C1617.3 395.884 1617.72 394.386 1618.13 392.887C1618.55 391.387 1619.01 389.901 1619.49 388.414C1619.96 386.924 1620.49 385.45 1621.03 383.977C1621.58 382.506 1622.15 381.036 1622.79 379.586C1623.43 378.136 1624.08 376.682 1624.85 375.257C1625.59 373.83 1626.42 372.417 1627.36 371.026C1628.3 369.645 1629.4 368.286 1630.8 367.019C1631.16 366.703 1631.51 366.393 1631.96 366.113C1632.39 365.828 1632.8 365.541 1633.34 365.318L1634.11 364.979C1634.38 364.884 1634.69 364.818 1634.98 364.747C1635.29 364.69 1635.56 364.593 1635.89 364.59C1636.21 364.579 1636.53 364.578 1636.85 364.587L1637.09 364.595L1637.21 364.6L1637.27 364.603L1637.3 364.605L1637.5 364.633L1637.78 364.696L1638.34 364.826C1638.83 364.973 1639.53 365.191 1639.99 365.434C1640.96 365.908 1641.81 366.555 1642.51 367.278C1643.9 368.747 1644.69 370.426 1645.25 372.048C1646.31 375.324 1646.5 378.547 1646.42 381.702C1646.39 383.279 1646.26 384.842 1646.04 386.39C1645.85 387.937 1645.57 389.473 1645.18 390.98C1644.93 387.889 1644.52 384.85 1644 381.889C1643.42 378.95 1642.68 376.033 1641.44 373.611C1640.83 372.422 1640.09 371.347 1639.25 370.707C1638.84 370.375 1638.41 370.14 1637.98 369.991C1637.74 369.912 1637.69 369.931 1637.46 369.857L1636.88 369.789L1636.6 369.753C1636.43 369.73 1636.81 369.782 1636.77 369.778L1636.76 369.78L1636.75 369.785L1636.72 369.793L1636.67 369.807C1636.55 369.834 1636.43 369.814 1636.27 369.909C1636.2 369.943 1636.13 369.949 1636.05 369.986C1635.96 370.046 1635.87 370.102 1635.78 370.154C1635.61 370.225 1635.41 370.41 1635.21 370.57C1635.02 370.703 1634.82 370.929 1634.61 371.133C1633.79 371.974 1632.99 373.047 1632.28 374.247C1631.55 375.426 1630.87 376.685 1630.24 377.998C1629.6 379.295 1629 380.643 1628.42 382.002C1627.85 383.368 1627.29 384.746 1626.75 386.139L1625.18 390.356C1624.66 391.766 1624.19 393.199 1623.69 394.622L1622.24 398.922L1620.84 403.245L1619.48 407.565L1618.7 405.276L1619.75 406.302C1620.1 406.635 1620.43 407.021 1620.77 407.378C1621.11 407.729 1621.42 408.141 1621.74 408.53C1622.06 408.908 1622.35 409.357 1622.65 409.776C1622.95 410.208 1623.22 410.68 1623.47 411.164L1623.81 411.935C1623.92 412.198 1624 412.499 1624.09 412.778C1624.25 413.359 1624.35 414 1624.31 414.678C1624.31 415.007 1624.2 415.361 1624.13 415.69C1624.01 416.013 1623.88 416.344 1623.71 416.629C1623.36 417.201 1622.92 417.685 1622.44 418.019C1621.97 418.381 1621.48 418.626 1621 418.841C1620.02 419.259 1619.05 419.466 1618.09 419.592C1616.16 419.845 1614.27 419.808 1612.42 419.556Z" fill="#FF8176"/>
<path d="M1512.62 406.055C1512.62 406.055 1512.11 406.778 1511.04 407.875C1509.98 408.975 1508.37 410.463 1506.21 411.97C1504.07 413.476 1501.39 415.04 1498.31 416.283C1497.54 416.611 1496.75 416.898 1495.93 417.165C1495.13 417.46 1494.28 417.683 1493.43 417.917C1491.73 418.36 1489.96 418.698 1488.16 418.902C1486.37 419.107 1484.55 419.165 1482.77 419.082C1480.98 419.021 1479.23 418.753 1477.56 418.419C1476.73 418.204 1475.92 418.019 1475.14 417.783C1474.36 417.511 1473.6 417.259 1472.88 416.986C1472.17 416.666 1471.49 416.354 1470.82 416.053C1470.17 415.726 1469.57 415.366 1468.99 415.034C1467.83 414.357 1466.85 413.609 1466 412.954C1465.18 412.245 1464.48 411.632 1463.95 411.074C1463.42 410.523 1463.04 410.048 1462.76 409.746C1462.5 409.431 1462.36 409.263 1462.36 409.263C1462.36 409.263 1462.57 409.331 1462.97 409.457C1463.35 409.597 1463.93 409.77 1464.61 410.044C1465.3 410.308 1466.19 410.529 1467.13 410.866C1467.61 411.025 1468.14 411.15 1468.68 411.304C1469.22 411.452 1469.76 411.639 1470.37 411.751C1470.96 411.876 1471.56 412.054 1472.2 412.172C1472.83 412.29 1473.48 412.413 1474.15 412.539C1474.83 412.618 1475.52 412.728 1476.21 412.825C1476.92 412.877 1477.64 412.96 1478.36 413.028C1479.09 413.06 1479.83 413.093 1480.58 413.127C1481.33 413.105 1482.09 413.154 1482.85 413.121C1483.62 413.093 1484.38 413.073 1485.16 413.01L1486.32 412.932L1487.48 412.796C1489.04 412.653 1490.58 412.375 1492.11 412.112C1493.64 411.8 1495.15 411.501 1496.61 411.123C1499.53 410.41 1502.25 409.562 1504.61 408.806C1506.98 408.044 1508.96 407.341 1510.38 406.853C1511.81 406.345 1512.62 406.055 1512.62 406.055Z" fill="#FF8176"/>
<path d="M1535.39 396.058C1561.68 396.058 1582.99 374.747 1582.99 348.457C1582.99 322.168 1561.68 300.856 1535.39 300.856C1509.1 300.856 1487.79 322.168 1487.79 348.457C1487.79 374.747 1509.1 396.058 1535.39 396.058Z" stroke="#00537E" stroke-width="5.1001" stroke-miterlimit="10"/>
<path d="M1432.27 374.348C1455.91 374.348 1475.08 353.037 1475.08 326.747C1475.08 300.458 1455.91 279.146 1432.27 279.146C1408.62 279.146 1389.46 300.458 1389.46 326.747C1389.46 353.037 1408.62 374.348 1432.27 374.348Z" stroke="#00537E" stroke-width="5.7469" stroke-miterlimit="10"/>
<path d="M1487.31 353.536C1487.31 353.536 1478.21 343.479 1467.68 352.578" stroke="#00537E" stroke-width="5.1001" stroke-miterlimit="10" stroke-linecap="round"/>
<path d="M1578.78 369.34L1614.22 381.313" stroke="#00537E" stroke-width="5.1001" stroke-miterlimit="10"/>
<path d="M1700.83 572.907C1700.83 572.907 1717.56 800.572 1678.12 826.229C1638.68 851.886 1335.46 703.455 1461.93 744.912C1461.93 744.912 1379.66 702.764 1466.82 732.807C1466.82 732.807 1384.54 690.659 1476.99 724.913C1476.99 724.913 1400.32 685.497 1490.12 717.646C1490.12 717.646 1465.94 678.523 1503.16 718.089L1611.16 740.951C1611.16 740.951 1587.38 586.759 1612.65 555.011C1637.92 523.263 1700.83 572.907 1700.83 572.907Z" fill="#FFCEC6"/>
<path d="M1602.15 655.352C1599.69 614.113 1600.47 570.323 1612.65 555.013C1637.92 523.266 1700.83 572.908 1700.83 572.908C1700.83 572.908 1704.12 617.755 1704.34 669.879C1669.15 674.873 1633.79 672.257 1602.15 655.352Z" fill="#FF9E94"/>
<path d="M1711.92 647.585C1711.92 647.585 1718.18 525.946 1660.2 503.913C1612.3 485.715 1587.06 560.772 1585.49 648.543C1585.49 648.543 1646.98 673.252 1711.92 647.585Z" fill="#35A58A"/>
<path d="M1304.55 744.163C1304.55 744.163 1259.16 760.507 1276.2 792.651C1294.09 826.389 1312.38 847.054 1288.46 791.896C1288.46 791.896 1330.76 865.62 1294.2 778.411C1294.2 778.411 1349.98 857.871 1308.82 775.869C1308.82 775.869 1355.88 833.706 1312 760.9L1331.65 737.568C1331.65 737.568 1318.84 736.303 1304.55 744.163Z" fill="#FFCEC6"/>
</svg>
